M48
;Layer_Color=9474304
;FILE_FORMAT=2:5
INCH,TZ
;TYPE=PLATED
T1F00S00C0.02800
T2F00S00C0.02913
T3F00S00C0.03346
T4F00S00C0.03543
T5F00S00C0.03740
T6F00S00C0.03780
T7F00S00C0.03937
T8F00S00C0.04016
;TYPE=NON_PLATED
T9F00S00C0.09911
%
T01
X347000Y368000
X354000Y385000
X404500Y405000
X412500Y431500
X388000Y463000
X333500
X447500Y459000
X449000Y404000
X449500Y396000
X463000Y396500
X460000Y414000
X445000Y375000
X476500Y330500
X475000Y447500
X420000Y477500
X414000Y473500
X390000Y483000
X380000Y469000
X356000Y470000
T02
X442500Y310000
Y320000
Y330000
T03
X178500Y352972
Y412028
T04
X171500Y305000
X181500
X155000
X145000
Y447500
X172559
X336500Y409000
Y399000
Y389000
X396000Y422500
Y432500
Y442500
Y452500
X440000Y447000
Y437000
Y427000
Y417000
X436000Y388000
Y378000
Y368000
Y358000
X404000Y340500
Y330500
X499500Y353000
Y363000
Y373000
Y383000
Y443000
Y453000
Y463000
Y473000
X367000Y491500
X357000
X347000
X337000
X172559Y478996
X145000
T05
X238146Y315339
X268854
X298382Y482661
X208618
T06
X385500Y331764
Y342000
Y352236
T07
X143500Y366500
Y396028
X475000Y477000
X485000
X465000
X455000
X445000
X435000
T08
X321130Y319398
Y329398
Y339398
Y349398
Y359398
Y369398
Y379398
Y389398
Y399398
Y409398
Y419398
Y429398
Y439398
Y449398
Y459398
X421130
Y449398
Y439398
Y429398
Y419398
Y409398
Y399398
Y389398
Y379398
Y369398
Y359398
Y349398
Y339398
Y329398
Y319398
X364500Y356000
X350000
X336000Y356500
X479500Y345500
X482500Y394000
T09
X322980Y305894
X419476
Y490736
X322980
M30
