G04*
G04 #@! TF.GenerationSoftware,Altium Limited,Altium Designer,20.0.2 (26)*
G04*
G04 Layer_Color=8421504*
%FSLAX44Y44*%
%MOMM*%
G71*
G01*
G75*
%ADD16R,1.3000X0.6000*%
%ADD17R,0.8000X0.6000*%
%ADD18R,0.7000X1.2000*%
%ADD19R,0.8000X1.0000*%
%ADD20R,0.5000X0.4500*%
%ADD21R,0.6725X0.7154*%
%ADD22R,1.4546X1.5562*%
%ADD23R,2.0500X2.6500*%
%ADD24R,0.6900X0.7200*%
%ADD25R,4.0000X2.1500*%
%ADD26R,0.7154X0.6725*%
G36*
X1018950Y978360D02*
Y972360D01*
X1012950Y966360D01*
X988950D01*
X982950Y972360D01*
Y978360D01*
X988950Y984360D01*
X1012950D01*
X1018950Y978360D01*
D02*
G37*
D16*
X981450Y960360D02*
D03*
Y990360D02*
D03*
D17*
X978950Y975360D02*
D03*
D18*
X1228960Y821170D02*
D03*
X1203960D02*
D03*
X1178960D02*
D03*
D19*
X1036320Y900430D02*
D03*
X1021320D02*
D03*
D20*
X1015880Y1176020D02*
D03*
X1008380D02*
D03*
X1018480Y1235710D02*
D03*
X1010980D02*
D03*
D21*
X845820Y1145540D02*
D03*
Y1155111D02*
D03*
D22*
X947052Y1027430D02*
D03*
X965568D02*
D03*
D23*
X415910Y836930D02*
D03*
X366410D02*
D03*
D24*
X953770Y951230D02*
D03*
X944570D02*
D03*
D25*
X959330Y1122680D02*
D03*
X892330D02*
D03*
D26*
X908050Y960120D02*
D03*
X917621D02*
D03*
X943021Y1000760D02*
D03*
X933450D02*
D03*
M02*
