G04*
G04 #@! TF.GenerationSoftware,Altium Limited,Altium Designer,20.0.2 (26)*
G04*
G04 Layer_Color=16711935*
%FSLAX44Y44*%
%MOMM*%
G71*
G01*
G75*
%ADD14C,0.2540*%
%ADD64C,0.1524*%
D14*
X309880Y1268730D02*
X309880Y756920D01*
X1286510D01*
X1287780Y758190D01*
Y1268730D01*
X309880D02*
X1287780D01*
X1287548Y735330D02*
Y740410D01*
X309648Y735330D02*
Y740410D01*
X1272308Y732790D02*
X1287548Y737870D01*
X1272308Y742950D02*
X1287548Y737870D01*
X309648Y737870D02*
X324888Y732790D01*
X309648Y737870D02*
X324888Y742950D01*
X869950Y737870D02*
X1287548D01*
X309648Y737870D02*
X727245D01*
X277878Y1270867D02*
X282959D01*
X277878Y756517D02*
X282959D01*
X280418Y1270867D02*
X285499Y1255627D01*
X275338D02*
X280418Y1270867D01*
X280418Y756517D02*
X285499Y771757D01*
X275338D02*
X280418Y756517D01*
X280418Y1085044D02*
Y1270867D01*
X280418Y756517D02*
Y942340D01*
D64*
X729786Y741424D02*
X732325Y743963D01*
X737403D01*
X739942Y741424D01*
Y738885D01*
X737403Y736346D01*
X734864D01*
X737403D01*
X739942Y733807D01*
Y731268D01*
X737403Y728728D01*
X732325D01*
X729786Y731268D01*
X745021Y741424D02*
X747560Y743963D01*
X752638D01*
X755177Y741424D01*
Y738885D01*
X752638Y736346D01*
X755177Y733807D01*
Y731268D01*
X752638Y728728D01*
X747560D01*
X745021Y731268D01*
Y733807D01*
X747560Y736346D01*
X745021Y738885D01*
Y741424D01*
X747560Y736346D02*
X752638D01*
X770412Y743963D02*
X760256D01*
Y736346D01*
X765334Y738885D01*
X767873D01*
X770412Y736346D01*
Y731268D01*
X767873Y728728D01*
X762795D01*
X760256Y731268D01*
X775491Y741424D02*
X778030Y743963D01*
X783108D01*
X785648Y741424D01*
Y731268D01*
X783108Y728728D01*
X778030D01*
X775491Y731268D01*
Y741424D01*
X811039Y728728D02*
X805961Y733807D01*
Y738885D01*
X811039Y743963D01*
X818657Y728728D02*
Y738885D01*
X821196D01*
X823735Y736346D01*
Y728728D01*
Y736346D01*
X826274Y738885D01*
X828813Y736346D01*
Y728728D01*
X833892D02*
X838970D01*
X836431D01*
Y738885D01*
X833892D01*
X846588Y728728D02*
X851666D01*
X849127D01*
Y743963D01*
X846588D01*
X859284Y728728D02*
X864362Y733807D01*
Y738885D01*
X859284Y743963D01*
X289560Y955037D02*
Y944880D01*
X279403Y955037D01*
X276864D01*
X274325Y952497D01*
Y947419D01*
X276864Y944880D01*
Y960115D02*
X274325Y962654D01*
Y967733D01*
X276864Y970272D01*
X287021D01*
X289560Y967733D01*
Y962654D01*
X287021Y960115D01*
X276864D01*
X289560Y985507D02*
Y975350D01*
X279403Y985507D01*
X276864D01*
X274325Y982968D01*
Y977889D01*
X276864Y975350D01*
X274325Y1000742D02*
Y990585D01*
X281943D01*
X279403Y995664D01*
Y998203D01*
X281943Y1000742D01*
X287021D01*
X289560Y998203D01*
Y993124D01*
X287021Y990585D01*
X289560Y1026134D02*
X284482Y1021055D01*
X279403D01*
X274325Y1026134D01*
X289560Y1033751D02*
X279403D01*
Y1036290D01*
X281943Y1038830D01*
X289560D01*
X281943D01*
X279403Y1041369D01*
X281943Y1043908D01*
X289560D01*
Y1048986D02*
Y1054065D01*
Y1051525D01*
X279403D01*
Y1048986D01*
X289560Y1061682D02*
Y1066761D01*
Y1064221D01*
X274325D01*
Y1061682D01*
X289560Y1074378D02*
X284482Y1079456D01*
X279403D01*
X274325Y1074378D01*
M02*
