G04*
G04 #@! TF.GenerationSoftware,Altium Limited,Altium Designer,20.0.2 (26)*
G04*
G04 Layer_Color=255*
%FSLAX44Y44*%
%MOMM*%
G71*
G01*
G75*
%ADD16R,0.6725X0.7154*%
%ADD17R,0.7000X1.2000*%
%ADD18R,0.5000X0.4500*%
%ADD19R,1.3000X0.6000*%
%ADD20R,0.8000X0.6000*%
%ADD21R,1.4546X1.5562*%
%ADD22R,4.0000X2.1500*%
%ADD23R,2.0500X2.6500*%
%ADD24R,0.6900X0.7200*%
%ADD25R,0.7154X0.6725*%
%ADD26R,0.8000X1.0000*%
%ADD39C,1.5700*%
%ADD47C,1.4500*%
%ADD48R,1.4500X1.4500*%
%ADD51C,1.4930*%
%ADD52R,1.4930X1.4930*%
%ADD53C,1.5000*%
%ADD54R,1.5000X1.5000*%
%ADD55C,1.2690*%
%ADD56R,1.5000X1.5000*%
%ADD57R,2.0000X2.0000*%
%ADD58C,2.0000*%
%ADD59C,3.0000*%
%ADD60C,1.8000*%
%ADD61C,1.4000*%
%ADD62C,1.2000*%
D16*
X845820Y1155111D02*
D03*
Y1145540D02*
D03*
D17*
X1178960Y821170D02*
D03*
X1203960D02*
D03*
X1228960D02*
D03*
D18*
X1010980Y1235710D02*
D03*
X1018480D02*
D03*
X1008380Y1176020D02*
D03*
X1015880D02*
D03*
D19*
X981450Y990360D02*
D03*
Y960360D02*
D03*
D20*
X978950Y975360D02*
D03*
D21*
X965568Y1027430D02*
D03*
X947052D02*
D03*
D22*
X892330Y1122680D02*
D03*
X959330D02*
D03*
D23*
X366410Y836930D02*
D03*
X415910D02*
D03*
D24*
X944570Y951230D02*
D03*
X953770D02*
D03*
D25*
X933450Y1000760D02*
D03*
X943021D02*
D03*
X917621Y960120D02*
D03*
X908050D02*
D03*
D26*
X1021320Y900430D02*
D03*
X1036320D02*
D03*
D39*
X1217930Y877570D02*
D03*
X925830Y904240D02*
D03*
X1225550Y1000760D02*
D03*
X853440Y905510D02*
D03*
X889000Y904240D02*
D03*
D47*
X757890Y1225960D02*
D03*
X529890D02*
D03*
X682890Y800960D02*
D03*
D48*
X604890D02*
D03*
D51*
X979170Y894680D02*
D03*
Y868680D02*
D03*
D52*
Y842680D02*
D03*
D53*
X1026160Y839470D02*
D03*
X1005840Y1073150D02*
D03*
Y1098550D02*
D03*
Y1123950D02*
D03*
X855980Y1248410D02*
D03*
X881380D02*
D03*
X906780D02*
D03*
X854710Y1013460D02*
D03*
Y988060D02*
D03*
X1268730Y1125220D02*
D03*
Y1150620D02*
D03*
Y1176020D02*
D03*
X1107440Y909320D02*
D03*
Y934720D02*
D03*
Y960120D02*
D03*
X1117600Y1059180D02*
D03*
Y1084580D02*
D03*
Y1109980D02*
D03*
X461010Y774700D02*
D03*
X393700D02*
D03*
X364490Y1005910D02*
D03*
X1268730Y972820D02*
D03*
Y947420D02*
D03*
Y922020D02*
D03*
D54*
X1026160Y864870D02*
D03*
X1005840Y1149350D02*
D03*
X854710Y1038860D02*
D03*
X1268730Y1201420D02*
D03*
X1107440Y985520D02*
D03*
X1117600Y1135380D02*
D03*
X364490Y930910D02*
D03*
X1268730Y896620D02*
D03*
D55*
X1123950Y838200D02*
D03*
Y812800D02*
D03*
Y787400D02*
D03*
D56*
X932180Y1248410D02*
D03*
X435610Y774700D02*
D03*
X368300D02*
D03*
D57*
X1069670Y1166870D02*
D03*
D58*
Y1141470D02*
D03*
Y1116070D02*
D03*
Y1090670D02*
D03*
Y1065270D02*
D03*
Y1039870D02*
D03*
Y1014470D02*
D03*
Y989070D02*
D03*
Y963670D02*
D03*
Y938270D02*
D03*
Y912870D02*
D03*
Y887470D02*
D03*
Y862070D02*
D03*
Y836670D02*
D03*
Y811270D02*
D03*
X815670Y1166870D02*
D03*
Y1141470D02*
D03*
Y1116070D02*
D03*
Y1090670D02*
D03*
Y1065270D02*
D03*
Y1039870D02*
D03*
Y1014470D02*
D03*
Y989070D02*
D03*
Y963670D02*
D03*
Y938270D02*
D03*
Y912870D02*
D03*
Y887470D02*
D03*
Y862070D02*
D03*
Y836670D02*
D03*
Y811270D02*
D03*
D59*
X1065470Y776970D02*
D03*
X820370D02*
D03*
Y1246470D02*
D03*
X1065470D02*
D03*
D60*
X1104900Y1211580D02*
D03*
X1130300D02*
D03*
X1155700D02*
D03*
X1181100D02*
D03*
X1206500D02*
D03*
X1231900D02*
D03*
D61*
X368300Y1216650D02*
D03*
X438300D02*
D03*
Y1136650D02*
D03*
X368300D02*
D03*
D62*
X453390Y1046550D02*
D03*
Y896550D02*
D03*
M02*
