G04*
G04 #@! TF.GenerationSoftware,Altium Limited,Altium Designer,20.0.2 (26)*
G04*
G04 Layer_Color=8388736*
%FSLAX44Y44*%
%MOMM*%
G71*
G01*
G75*
%ADD16R,0.6725X0.7154*%
%ADD21R,1.4546X1.5562*%
%ADD25R,0.7154X0.6725*%
%ADD27R,0.9040X1.4040*%
%ADD28R,0.7040X0.6540*%
%ADD29R,1.5040X0.8040*%
%ADD30R,1.0040X0.8040*%
%ADD31R,4.2040X2.3540*%
%ADD32R,2.2540X2.8540*%
%ADD33R,0.8940X0.9240*%
%ADD34R,1.0040X1.2040*%
%ADD35C,1.6970*%
%ADD36R,1.6970X1.6970*%
%ADD37C,1.7040*%
%ADD38R,1.7040X1.7040*%
%ADD39C,1.5700*%
%ADD40C,1.4730*%
%ADD41R,1.7040X1.7040*%
%ADD42R,2.2040X2.2040*%
%ADD43C,2.2040*%
%ADD44C,3.2040*%
%ADD45C,2.0040*%
%ADD46C,1.6040*%
%ADD47C,1.4500*%
%ADD48R,1.4500X1.4500*%
%ADD49C,1.4040*%
%ADD50C,1.4740*%
G36*
X1013083Y985374D02*
X1013215Y985347D01*
X1013341Y985304D01*
X1013461Y985245D01*
X1013572Y985171D01*
X1013673Y985083D01*
X1019673Y979083D01*
X1019761Y978982D01*
X1019835Y978871D01*
X1019894Y978751D01*
X1019905Y978719D01*
X1019937Y978625D01*
X1019964Y978493D01*
X1019972Y978360D01*
Y972360D01*
X1019964Y972227D01*
X1019937Y972095D01*
X1019894Y971969D01*
X1019835Y971849D01*
X1019761Y971738D01*
X1019673Y971637D01*
X1013673Y965637D01*
X1013572Y965549D01*
X1013461Y965475D01*
X1013341Y965416D01*
X1013298Y965401D01*
X1013215Y965373D01*
X1013083Y965347D01*
X1012950Y965338D01*
X988950D01*
X988817Y965347D01*
X988685Y965373D01*
X988559Y965416D01*
X988439Y965475D01*
X988328Y965549D01*
X988227Y965637D01*
X982227Y971637D01*
X982139Y971738D01*
X982065Y971849D01*
X982006Y971969D01*
X981963Y972095D01*
X981936Y972227D01*
X981928Y972360D01*
Y978360D01*
X981936Y978493D01*
X981963Y978625D01*
X982006Y978751D01*
X982065Y978871D01*
X982139Y978982D01*
X982227Y979083D01*
X988227Y985083D01*
X988328Y985171D01*
X988439Y985245D01*
X988559Y985304D01*
X988685Y985347D01*
X988817Y985374D01*
X988950Y985382D01*
X1012950D01*
X1013083Y985374D01*
D02*
G37*
D16*
X845820Y1155111D02*
D03*
Y1145540D02*
D03*
D21*
X965568Y1027430D02*
D03*
X947052D02*
D03*
D25*
X933450Y1000760D02*
D03*
X943021D02*
D03*
X917621Y960120D02*
D03*
X908050D02*
D03*
D27*
X1178960Y821170D02*
D03*
X1203960D02*
D03*
X1228960D02*
D03*
D28*
X1010980Y1235710D02*
D03*
X1018480D02*
D03*
X1008380Y1176020D02*
D03*
X1015880D02*
D03*
D29*
X981450Y990360D02*
D03*
Y960360D02*
D03*
D30*
X978950Y975360D02*
D03*
D31*
X892330Y1122680D02*
D03*
X959330D02*
D03*
D32*
X366410Y836930D02*
D03*
X415910D02*
D03*
D33*
X944570Y951230D02*
D03*
X953770D02*
D03*
D34*
X1021320Y900430D02*
D03*
X1036320D02*
D03*
D35*
X979170Y894680D02*
D03*
Y868680D02*
D03*
D36*
Y842680D02*
D03*
D37*
X1026160Y839470D02*
D03*
X1005840Y1073150D02*
D03*
Y1098550D02*
D03*
Y1123950D02*
D03*
X855980Y1248410D02*
D03*
X881380D02*
D03*
X906780D02*
D03*
X854710Y1013460D02*
D03*
Y988060D02*
D03*
X1268730Y1125220D02*
D03*
Y1150620D02*
D03*
Y1176020D02*
D03*
X1107440Y909320D02*
D03*
Y934720D02*
D03*
Y960120D02*
D03*
X1117600Y1059180D02*
D03*
Y1084580D02*
D03*
Y1109980D02*
D03*
X461010Y774700D02*
D03*
X393700D02*
D03*
X364490Y1005910D02*
D03*
X1268730Y972820D02*
D03*
Y947420D02*
D03*
Y922020D02*
D03*
D38*
X1026160Y864870D02*
D03*
X1005840Y1149350D02*
D03*
X854710Y1038860D02*
D03*
X1268730Y1201420D02*
D03*
X1107440Y985520D02*
D03*
X1117600Y1135380D02*
D03*
X364490Y930910D02*
D03*
X1268730Y896620D02*
D03*
D39*
X1217930Y877570D02*
D03*
X925830Y904240D02*
D03*
X1225550Y1000760D02*
D03*
X853440Y905510D02*
D03*
X889000Y904240D02*
D03*
D40*
X1123950Y838200D02*
D03*
Y812800D02*
D03*
Y787400D02*
D03*
D41*
X932180Y1248410D02*
D03*
X435610Y774700D02*
D03*
X368300D02*
D03*
D42*
X1069670Y1166870D02*
D03*
D43*
Y1141470D02*
D03*
Y1116070D02*
D03*
Y1090670D02*
D03*
Y1065270D02*
D03*
Y1039870D02*
D03*
Y1014470D02*
D03*
Y989070D02*
D03*
Y963670D02*
D03*
Y938270D02*
D03*
Y912870D02*
D03*
Y887470D02*
D03*
Y862070D02*
D03*
Y836670D02*
D03*
Y811270D02*
D03*
X815670Y1166870D02*
D03*
Y1141470D02*
D03*
Y1116070D02*
D03*
Y1090670D02*
D03*
Y1065270D02*
D03*
Y1039870D02*
D03*
Y1014470D02*
D03*
Y989070D02*
D03*
Y963670D02*
D03*
Y938270D02*
D03*
Y912870D02*
D03*
Y887470D02*
D03*
Y862070D02*
D03*
Y836670D02*
D03*
Y811270D02*
D03*
D44*
X1065470Y776970D02*
D03*
X820370D02*
D03*
Y1246470D02*
D03*
X1065470D02*
D03*
D45*
X1104900Y1211580D02*
D03*
X1130300D02*
D03*
X1155700D02*
D03*
X1181100D02*
D03*
X1206500D02*
D03*
X1231900D02*
D03*
D46*
X368300Y1216650D02*
D03*
X438300D02*
D03*
Y1136650D02*
D03*
X368300D02*
D03*
D47*
X757890Y1225960D02*
D03*
X529890D02*
D03*
X682890Y800960D02*
D03*
D48*
X604890D02*
D03*
D49*
X453390Y1046550D02*
D03*
Y896550D02*
D03*
D50*
X1047750Y1096010D02*
D03*
X990600Y1226820D02*
D03*
X1066800Y1212850D02*
D03*
X1168400Y1051560D02*
D03*
X1206500Y1136650D02*
D03*
X1130300Y952500D02*
D03*
X1176020Y1007110D02*
D03*
X1141730Y1005840D02*
D03*
X1140460Y1026160D02*
D03*
X1051560Y1202690D02*
D03*
X985520Y1176020D02*
D03*
X1136650Y1165860D02*
D03*
X965200Y1191260D02*
D03*
X904240Y1193800D02*
D03*
X1027430Y1028700D02*
D03*
X1210310Y839470D02*
D03*
X881380Y934720D02*
D03*
X899160Y977900D02*
D03*
X847090Y1176020D02*
D03*
M02*
