G04*
G04 #@! TF.GenerationSoftware,Altium Limited,Altium Designer,20.0.2 (26)*
G04*
G04 Layer_Color=32896*
%FSLAX44Y44*%
%MOMM*%
G71*
G01*
G75*
%ADD10C,0.2000*%
%ADD14C,0.2540*%
%ADD15C,0.1270*%
D10*
X1092170Y1166870D02*
G03*
X1092170Y1166870I-1000J0D01*
G01*
D14*
X581418Y1094740D02*
X596654D01*
Y1087122D01*
X594114Y1084583D01*
X583958D01*
X581418Y1087122D01*
Y1094740D01*
Y1079505D02*
Y1074427D01*
Y1076966D01*
X596654D01*
Y1079505D01*
Y1074427D01*
X581418Y1066809D02*
X583958D01*
X589036Y1061731D01*
X583958Y1056652D01*
X581418D01*
X589036Y1061731D02*
X596654D01*
Y1036339D02*
X586497D01*
X581418Y1031261D01*
X586497Y1026182D01*
X596654D01*
X589036D01*
Y1036339D01*
X596654Y1021104D02*
Y1016025D01*
Y1018565D01*
X586497D01*
Y1021104D01*
Y1008408D02*
X596654D01*
X591575D01*
X589036Y1005869D01*
X586497Y1003330D01*
Y1000790D01*
X594114Y967781D02*
X583958D01*
X581418Y970320D01*
Y975399D01*
X583958Y977938D01*
X594114D01*
X596654Y975399D01*
Y970320D01*
X591575Y972859D02*
X596654Y967781D01*
Y970320D02*
X594114Y967781D01*
X586497Y962703D02*
X594114D01*
X596654Y960163D01*
Y952546D01*
X586497D01*
Y944929D02*
Y939850D01*
X589036Y937311D01*
X596654D01*
Y944929D01*
X594114Y947468D01*
X591575Y944929D01*
Y937311D01*
X596654Y932233D02*
Y927154D01*
Y929693D01*
X581418D01*
Y932233D01*
X596654Y919537D02*
Y914458D01*
Y916998D01*
X586497D01*
Y919537D01*
X583958Y904302D02*
X586497D01*
Y906841D01*
Y901762D01*
Y904302D01*
X594114D01*
X596654Y901762D01*
X586497Y894145D02*
X594114D01*
X596654Y891606D01*
Y883988D01*
X599193D01*
X601732Y886527D01*
Y889067D01*
X596654Y883988D02*
X586497D01*
X626110Y1094740D02*
X610875D01*
X615953Y1089662D01*
X610875Y1084583D01*
X626110D01*
Y1076966D02*
Y1071887D01*
X623571Y1069348D01*
X618493D01*
X615953Y1071887D01*
Y1076966D01*
X618493Y1079505D01*
X623571D01*
X626110Y1076966D01*
Y1064270D02*
X615953D01*
Y1056652D01*
X618493Y1054113D01*
X626110D01*
Y1049035D02*
Y1043956D01*
Y1046496D01*
X615953D01*
Y1049035D01*
X613414Y1033800D02*
X615953D01*
Y1036339D01*
Y1031261D01*
Y1033800D01*
X623571D01*
X626110Y1031261D01*
Y1021104D02*
Y1016025D01*
X623571Y1013486D01*
X618493D01*
X615953Y1016025D01*
Y1021104D01*
X618493Y1023643D01*
X623571D01*
X626110Y1021104D01*
X615953Y1008408D02*
X626110D01*
X621032D01*
X618493Y1005869D01*
X615953Y1003330D01*
Y1000790D01*
X626110Y977938D02*
Y972859D01*
Y975399D01*
X610875D01*
X613414Y977938D01*
X626110Y965242D02*
X623571D01*
Y962703D01*
X626110D01*
Y965242D01*
X613414Y952546D02*
X610875Y950007D01*
Y944929D01*
X613414Y942389D01*
X623571D01*
X626110Y944929D01*
Y950007D01*
X623571Y952546D01*
X613414D01*
X654050Y1082043D02*
Y1092200D01*
X643893Y1082043D01*
X641354D01*
X638815Y1084583D01*
Y1089661D01*
X641354Y1092200D01*
Y1076965D02*
X638815Y1074426D01*
Y1069347D01*
X641354Y1066808D01*
X651511D01*
X654050Y1069347D01*
Y1074426D01*
X651511Y1076965D01*
X641354D01*
X654050Y1051573D02*
Y1061730D01*
X643893Y1051573D01*
X641354D01*
X638815Y1054112D01*
Y1059191D01*
X641354Y1061730D01*
X654050Y1036338D02*
Y1046495D01*
X643893Y1036338D01*
X641354D01*
X638815Y1038877D01*
Y1043956D01*
X641354Y1046495D01*
X654050Y1031260D02*
X643893Y1021103D01*
X654050Y1016025D02*
Y1010946D01*
Y1013485D01*
X638815D01*
X641354Y1016025D01*
X654050Y993172D02*
Y1003329D01*
X643893Y993172D01*
X641354D01*
X638815Y995711D01*
Y1000790D01*
X641354Y1003329D01*
X654050Y988094D02*
X643893Y977937D01*
X654050Y972859D02*
Y967780D01*
Y970319D01*
X638815D01*
X641354Y972859D01*
X651511Y960163D02*
X654050Y957624D01*
Y952545D01*
X651511Y950006D01*
X641354D01*
X638815Y952545D01*
Y957624D01*
X641354Y960163D01*
X643893D01*
X646432Y957624D01*
Y950006D01*
X786130Y768350D02*
Y783585D01*
X781052Y778507D01*
X775973Y783585D01*
Y768350D01*
X770895D02*
X765817D01*
X768356D01*
Y783585D01*
X770895Y781046D01*
D15*
X800370Y756970D02*
Y1266470D01*
Y756970D02*
X1085470D01*
X800370Y1266470D02*
X1085470D01*
Y756970D02*
Y1266470D01*
X974780D02*
X1085470D01*
X907670D02*
X974780D01*
X800370D02*
X907670D01*
X1085470Y756970D02*
Y1266470D01*
X800370Y756970D02*
Y1266470D01*
X1031770Y756970D02*
X1085470D01*
X854870D02*
X1031770D01*
X800370D02*
X854870D01*
M02*
