G04*
G04 #@! TF.GenerationSoftware,Altium Limited,Altium Designer,20.0.2 (26)*
G04*
G04 Layer_Color=32768*
%FSLAX44Y44*%
%MOMM*%
G71*
G01*
G75*
%ADD10C,0.2000*%
%ADD13C,0.1000*%
%ADD65C,0.0500*%
D10*
X979170Y891680D02*
G03*
X979170Y845680I0J-23000D01*
G01*
Y891680D01*
Y845680D02*
X991170Y842680D01*
X979170Y891680D02*
X991170Y894680D01*
Y842680D02*
Y894680D01*
Y842680D02*
Y894680D01*
X979170Y845680D02*
Y891680D01*
Y845680D02*
Y891680D01*
X1099800Y765150D02*
X1148100D01*
X1099800D02*
Y860450D01*
X1148100D01*
Y765150D02*
Y860450D01*
X323300Y1261650D02*
X483300D01*
Y1091650D02*
Y1261650D01*
X323300Y1091650D02*
X483300D01*
X323300D02*
Y1261650D01*
D13*
X1249460Y770920D02*
Y806420D01*
X1158460D02*
X1249460D01*
X1158460Y770920D02*
Y806420D01*
Y770920D02*
X1249460D01*
X1011980Y1235710D02*
X1017480D01*
X1014730Y1232960D02*
Y1238460D01*
X1009380Y1176020D02*
X1014880D01*
X1012130Y1173270D02*
Y1178770D01*
X884330Y1081180D02*
Y1164180D01*
X946580D01*
X967330Y1143430D01*
Y1101930D02*
Y1143430D01*
X946580Y1081180D02*
X967330Y1101930D01*
X884330Y1081180D02*
X946580D01*
X386160Y836930D02*
X396160D01*
X391160Y831930D02*
Y841930D01*
X954170Y948730D02*
Y953730D01*
X944170D02*
X954170D01*
X944170Y948730D02*
Y953730D01*
Y948730D02*
X954170D01*
X334990Y905910D02*
X393990D01*
Y1030910D01*
X334990D02*
X393990D01*
X334990Y905910D02*
Y1030910D01*
X1024320Y900430D02*
X1033320D01*
X1028820Y895930D02*
Y904930D01*
D65*
X1007230Y1231710D02*
Y1239710D01*
X1022230Y1231710D02*
Y1239710D01*
X1007230D02*
X1022230D01*
X1007230Y1231710D02*
X1022230D01*
X1004630Y1172020D02*
Y1180020D01*
X1019630Y1172020D02*
Y1180020D01*
X1004630D02*
X1019630D01*
X1004630Y1172020D02*
X1019630D01*
X1087970Y754470D02*
Y1268970D01*
X797870Y754470D02*
X1087970D01*
X797870D02*
Y1268970D01*
X1087970D01*
X353660Y820930D02*
Y852930D01*
X428660Y820930D02*
Y852930D01*
X353660D02*
X428660D01*
X353660Y820930D02*
X428660D01*
X480890Y881550D02*
Y1061550D01*
X425890D02*
X480890D01*
X425890Y881550D02*
X480890D01*
X425890D02*
Y1061550D01*
X1012320Y890430D02*
Y910430D01*
X1045320Y890430D02*
Y910430D01*
X1012320D02*
X1045320D01*
X1012320Y890430D02*
X1045320D01*
M02*
