G04*
G04 #@! TF.GenerationSoftware,Altium Limited,Altium Designer,20.0.2 (26)*
G04*
G04 Layer_Color=65535*
%FSLAX44Y44*%
%MOMM*%
G71*
G01*
G75*
%ADD10C,0.2000*%
%ADD11C,0.2500*%
%ADD12C,0.1500*%
%ADD13C,0.1000*%
%ADD14C,0.2540*%
%ADD15C,0.1270*%
D10*
X317300Y1218650D02*
G03*
X318300Y1218650I500J0D01*
G01*
D02*
G03*
X317300Y1218650I-500J0D01*
G01*
D02*
G03*
X318300Y1218650I500J0D01*
G01*
X1229960Y832670D02*
G03*
X1227960Y832670I-1000J0D01*
G01*
D02*
G03*
X1229960Y832670I1000J0D01*
G01*
X1153950Y836800D02*
G03*
X1153950Y838800I0J1000D01*
G01*
D02*
G03*
X1153950Y836800I0J-1000D01*
G01*
X1012200Y952360D02*
Y962360D01*
X986200Y952360D02*
X1012200D01*
Y988360D02*
Y998360D01*
X986200D02*
X1012200D01*
X1158460Y770920D02*
X1249460D01*
X1158460D02*
Y806420D01*
X1249460D01*
Y770920D02*
Y806420D01*
X843280Y1235710D02*
Y1261110D01*
X944880D01*
X843280Y1235710D02*
X944880D01*
Y1261110D01*
X842010Y1051560D02*
X867410D01*
Y975360D02*
Y1051560D01*
X842010Y975360D02*
X867410D01*
X842010D02*
Y1051560D01*
X1013460Y826770D02*
X1038860D01*
X1013460D02*
Y877570D01*
X1038860D01*
Y826770D02*
Y877570D01*
X853182Y1141963D02*
Y1158688D01*
X838458Y1141963D02*
Y1158688D01*
X493770Y760200D02*
Y1266720D01*
X794010D01*
Y760200D02*
Y1266720D01*
X493770Y760200D02*
X794010D01*
X939779Y1015649D02*
X972841D01*
X939779Y1039211D02*
X972841D01*
X380660Y824680D02*
X401660D01*
X380660Y849180D02*
X401660D01*
X884330Y1081180D02*
X979330D01*
X884330Y1164180D02*
X946580D01*
X334990Y905910D02*
Y1030910D01*
X393990D01*
Y905910D02*
Y1030910D01*
X334990Y905910D02*
X393990D01*
X355600Y787400D02*
X406400D01*
X355600Y762000D02*
Y787400D01*
Y762000D02*
X406400D01*
Y787400D01*
X422910D02*
X473710D01*
X422910Y762000D02*
Y787400D01*
Y762000D02*
X473710D01*
Y787400D01*
X1104900Y1046480D02*
X1130300D01*
X1104900D02*
Y1148080D01*
X1130300Y1046480D02*
Y1148080D01*
X1104900D02*
X1130300D01*
X1094740Y896620D02*
X1120140D01*
X1094740D02*
Y998220D01*
X1120140Y896620D02*
Y998220D01*
X1094740D02*
X1120140D01*
X993140Y1060450D02*
X1018540D01*
X993140D02*
Y1162050D01*
X1018540Y1060450D02*
Y1162050D01*
X993140D02*
X1018540D01*
X1256030Y1112520D02*
X1281430D01*
X1256030D02*
Y1214120D01*
X1281430Y1112520D02*
Y1214120D01*
X1256030D02*
X1281430D01*
X1256030Y985520D02*
X1281430D01*
Y883920D02*
Y985520D01*
X1256030Y883920D02*
Y985520D01*
Y883920D02*
X1281430D01*
X904473Y952758D02*
X921198D01*
X904473Y967482D02*
X921198D01*
X929873Y1008122D02*
X946598D01*
X929873Y993398D02*
X946598D01*
D11*
X980950Y998860D02*
G03*
X980950Y998860I-1250J0D01*
G01*
X606140Y754200D02*
G03*
X606140Y754200I-1250J0D01*
G01*
D12*
X1231380Y877570D02*
G03*
X1231380Y877570I-13450J0D01*
G01*
X939280Y904240D02*
G03*
X939280Y904240I-13450J0D01*
G01*
X902450D02*
G03*
X902450Y904240I-13450J0D01*
G01*
X866890Y905510D02*
G03*
X866890Y905510I-13450J0D01*
G01*
X1239000Y1000760D02*
G03*
X1239000Y1000760I-13450J0D01*
G01*
X1199904Y1233080D02*
Y1241077D01*
Y1237079D01*
X1211900D01*
X1199904Y1245076D02*
X1211900Y1253074D01*
X1199904D02*
X1211900Y1245076D01*
X1236900Y1233080D02*
X1224904D01*
Y1239078D01*
X1226903Y1241077D01*
X1230902D01*
X1232901Y1239078D01*
Y1233080D01*
Y1237079D02*
X1236900Y1241077D01*
X1224904Y1253074D02*
Y1245076D01*
X1236900D01*
Y1253074D01*
X1230902Y1245076D02*
Y1249075D01*
X1226903Y1265070D02*
X1224904Y1263070D01*
Y1259072D01*
X1226903Y1257072D01*
X1228903D01*
X1230902Y1259072D01*
Y1263070D01*
X1232901Y1265070D01*
X1234901D01*
X1236900Y1263070D01*
Y1259072D01*
X1234901Y1257072D01*
X1186900Y1233080D02*
X1174904D01*
Y1239078D01*
X1176903Y1241077D01*
X1180902D01*
X1182901Y1239078D01*
Y1233080D01*
Y1237079D02*
X1186900Y1241077D01*
X1174904Y1245076D02*
X1186900Y1253074D01*
X1174904D02*
X1186900Y1245076D01*
X1151903Y1241077D02*
X1149904Y1239078D01*
Y1235079D01*
X1151903Y1233080D01*
X1153903D01*
X1155902Y1235079D01*
Y1239078D01*
X1157901Y1241077D01*
X1159901D01*
X1161900Y1239078D01*
Y1235079D01*
X1159901Y1233080D01*
X1149904Y1253073D02*
Y1245076D01*
X1161900D01*
Y1253073D01*
X1155902Y1245076D02*
Y1249075D01*
X1149904Y1257072D02*
Y1265070D01*
Y1261071D01*
X1161900D01*
X1126903Y1241077D02*
X1124904Y1239078D01*
Y1235079D01*
X1126903Y1233080D01*
X1134901D01*
X1136900Y1235079D01*
Y1239078D01*
X1134901Y1241077D01*
X1130902D01*
Y1237079D01*
X1136900Y1245076D02*
X1124904D01*
X1136900Y1253073D01*
X1124904D01*
Y1257072D02*
X1136900D01*
Y1263070D01*
X1134901Y1265070D01*
X1126903D01*
X1124904Y1263070D01*
Y1257072D01*
X1099904Y1241077D02*
Y1233080D01*
X1105902D01*
X1103903Y1237079D01*
Y1239078D01*
X1105902Y1241077D01*
X1109901D01*
X1111900Y1239078D01*
Y1235079D01*
X1109901Y1233080D01*
X1099904Y1245076D02*
X1107901D01*
X1111900Y1249075D01*
X1107901Y1253073D01*
X1099904D01*
D13*
X364490Y898910D02*
G03*
X364490Y899910I0J500D01*
G01*
D02*
G03*
X364490Y898910I0J-500D01*
G01*
X323300Y1091650D02*
Y1261650D01*
X483300D01*
Y1091650D02*
Y1261650D01*
X323300Y1091650D02*
X483300D01*
X1148100Y765150D02*
Y860450D01*
X1099800D02*
X1148100D01*
X1099800Y765150D02*
Y860450D01*
Y765150D02*
X1148100D01*
X991170Y842680D02*
Y894680D01*
D14*
X1092200Y1198880D02*
X1244600D01*
Y1224280D01*
X1092200D02*
X1244600D01*
X1092200Y1198880D02*
Y1224280D01*
X331470Y1083305D02*
Y1068070D01*
X339087D01*
X341627Y1070609D01*
Y1073148D01*
X339087Y1075687D01*
X331470D01*
X339087D01*
X341627Y1078227D01*
Y1080766D01*
X339087Y1083305D01*
X331470D01*
X356862Y1068070D02*
X346705D01*
X356862Y1078227D01*
Y1080766D01*
X354323Y1083305D01*
X349244D01*
X346705Y1080766D01*
X1026160Y999490D02*
X1036317D01*
X1041395Y994412D01*
X1036317Y989333D01*
X1026160D01*
X1033777D01*
Y999490D01*
X1026160Y984255D02*
X1041395D01*
X1036317Y979177D01*
X1041395Y974098D01*
X1026160D01*
X1038856Y958863D02*
X1041395Y961402D01*
Y966481D01*
X1038856Y969020D01*
X1036317D01*
X1033777Y966481D01*
Y961402D01*
X1031238Y958863D01*
X1028699D01*
X1026160Y961402D01*
Y966481D01*
X1028699Y969020D01*
X1026160Y953785D02*
Y948706D01*
Y951246D01*
X1041395D01*
X1038856Y953785D01*
X1269997Y819896D02*
X1267458Y822435D01*
X1262379D01*
X1259840Y819896D01*
Y817357D01*
X1262379Y814818D01*
X1267458D01*
X1269997Y812278D01*
Y809739D01*
X1267458Y807200D01*
X1262379D01*
X1259840Y809739D01*
X1275075Y807200D02*
X1280153D01*
X1277614D01*
Y822435D01*
X1275075Y819896D01*
X1014723Y918337D02*
Y933572D01*
X1022341D01*
X1024880Y931033D01*
Y925955D01*
X1022341Y923415D01*
X1014723D01*
X1019801D02*
X1024880Y918337D01*
X1040115Y933572D02*
X1035036Y931033D01*
X1029958Y925955D01*
Y920876D01*
X1032497Y918337D01*
X1037576D01*
X1040115Y920876D01*
Y923415D01*
X1037576Y925955D01*
X1029958D01*
X1002030Y1183640D02*
Y1198875D01*
X1009648D01*
X1012187Y1196336D01*
Y1191257D01*
X1009648Y1188718D01*
X1002030D01*
X1007108D02*
X1012187Y1183640D01*
X1027422Y1198875D02*
X1017265D01*
Y1191257D01*
X1022343Y1193797D01*
X1024883D01*
X1027422Y1191257D01*
Y1186179D01*
X1024883Y1183640D01*
X1019804D01*
X1017265Y1186179D01*
X1107440Y1178560D02*
Y1193795D01*
X1115058D01*
X1117597Y1191256D01*
Y1186178D01*
X1115058Y1183638D01*
X1107440D01*
X1122675Y1178560D02*
Y1193795D01*
X1127753Y1188717D01*
X1132832Y1193795D01*
Y1178560D01*
X1148067Y1191256D02*
X1145528Y1193795D01*
X1140449D01*
X1137910Y1191256D01*
Y1188717D01*
X1140449Y1186178D01*
X1145528D01*
X1148067Y1183638D01*
Y1181099D01*
X1145528Y1178560D01*
X1140449D01*
X1137910Y1181099D01*
X1163302Y1193795D02*
X1153145D01*
Y1186178D01*
X1158224Y1188717D01*
X1160763D01*
X1163302Y1186178D01*
Y1181099D01*
X1160763Y1178560D01*
X1155684D01*
X1153145Y1181099D01*
X1168380Y1191256D02*
X1170919Y1193795D01*
X1175998D01*
X1178537Y1191256D01*
Y1181099D01*
X1175998Y1178560D01*
X1170919D01*
X1168380Y1181099D01*
Y1191256D01*
X1183615D02*
X1186154Y1193795D01*
X1191233D01*
X1193772Y1191256D01*
Y1181099D01*
X1191233Y1178560D01*
X1186154D01*
X1183615Y1181099D01*
Y1191256D01*
X1198850D02*
X1201390Y1193795D01*
X1206468D01*
X1209007Y1191256D01*
Y1188717D01*
X1206468Y1186178D01*
X1203929D01*
X1206468D01*
X1209007Y1183638D01*
Y1181099D01*
X1206468Y1178560D01*
X1201390D01*
X1198850Y1181099D01*
X472437Y871216D02*
X469897Y873755D01*
X464819D01*
X462280Y871216D01*
Y861059D01*
X464819Y858520D01*
X469897D01*
X472437Y861059D01*
X477515Y858520D02*
X482593D01*
X480054D01*
Y873755D01*
X477515Y871216D01*
X958847Y1257296D02*
X956308Y1259835D01*
X951229D01*
X948690Y1257296D01*
Y1254757D01*
X951229Y1252217D01*
X956308D01*
X958847Y1249678D01*
Y1247139D01*
X956308Y1244600D01*
X951229D01*
X948690Y1247139D01*
X974082Y1257296D02*
X971543Y1259835D01*
X966464D01*
X963925Y1257296D01*
Y1254757D01*
X966464Y1252217D01*
X971543D01*
X974082Y1249678D01*
Y1247139D01*
X971543Y1244600D01*
X966464D01*
X963925Y1247139D01*
X979160Y1259835D02*
Y1244600D01*
X986778D01*
X989317Y1247139D01*
Y1257296D01*
X986778Y1259835D01*
X979160D01*
X994395Y1244600D02*
X999474D01*
X996934D01*
Y1259835D01*
X994395Y1257296D01*
X1007091D02*
X1009630Y1259835D01*
X1014709D01*
X1017248Y1257296D01*
Y1254757D01*
X1014709Y1252217D01*
X1012169D01*
X1014709D01*
X1017248Y1249678D01*
Y1247139D01*
X1014709Y1244600D01*
X1009630D01*
X1007091Y1247139D01*
X1022326Y1257296D02*
X1024865Y1259835D01*
X1029944D01*
X1032483Y1257296D01*
Y1247139D01*
X1029944Y1244600D01*
X1024865D01*
X1022326Y1247139D01*
Y1257296D01*
X1047718Y1259835D02*
X1042640Y1257296D01*
X1037561Y1252217D01*
Y1247139D01*
X1040100Y1244600D01*
X1045179D01*
X1047718Y1247139D01*
Y1249678D01*
X1045179Y1252217D01*
X1037561D01*
X840740Y952500D02*
Y967735D01*
X848357D01*
X850897Y965196D01*
Y960117D01*
X848357Y957578D01*
X840740D01*
X855975Y965196D02*
X858514Y967735D01*
X863593D01*
X866132Y965196D01*
Y962657D01*
X863593Y960117D01*
X861053D01*
X863593D01*
X866132Y957578D01*
Y955039D01*
X863593Y952500D01*
X858514D01*
X855975Y955039D01*
X1013460Y802640D02*
Y817875D01*
X1021077D01*
X1023617Y815336D01*
Y810257D01*
X1021077Y807718D01*
X1013460D01*
X1028695Y805179D02*
X1031234Y802640D01*
X1036313D01*
X1038852Y805179D01*
Y815336D01*
X1036313Y817875D01*
X1031234D01*
X1028695Y815336D01*
Y812797D01*
X1031234Y810257D01*
X1038852D01*
X834390Y1118870D02*
Y1134105D01*
X842008D01*
X844547Y1131566D01*
Y1126488D01*
X842008Y1123948D01*
X834390D01*
X839468D02*
X844547Y1118870D01*
X849625Y1131566D02*
X852164Y1134105D01*
X857243D01*
X859782Y1131566D01*
Y1129027D01*
X857243Y1126488D01*
X854703D01*
X857243D01*
X859782Y1123948D01*
Y1121409D01*
X857243Y1118870D01*
X852164D01*
X849625Y1121409D01*
X514350Y786125D02*
Y773429D01*
X516889Y770890D01*
X521968D01*
X524507Y773429D01*
Y786125D01*
X529585Y770890D02*
X534663D01*
X532124D01*
Y786125D01*
X529585Y783586D01*
X952497Y1057906D02*
X949958Y1060445D01*
X944879D01*
X942340Y1057906D01*
Y1047749D01*
X944879Y1045210D01*
X949958D01*
X952497Y1047749D01*
X957575Y1057906D02*
X960114Y1060445D01*
X965193D01*
X967732Y1057906D01*
Y1055367D01*
X965193Y1052828D01*
X962653D01*
X965193D01*
X967732Y1050288D01*
Y1047749D01*
X965193Y1045210D01*
X960114D01*
X957575Y1047749D01*
X1214117Y855975D02*
X1209038D01*
X1211578D01*
Y843279D01*
X1209038Y840740D01*
X1206499D01*
X1203960Y843279D01*
X1229352Y855975D02*
X1219195D01*
Y848357D01*
X1224273Y850897D01*
X1226813D01*
X1229352Y848357D01*
Y843279D01*
X1226813Y840740D01*
X1221734D01*
X1219195Y843279D01*
X335277Y834385D02*
X325120D01*
Y826768D01*
X330198D01*
X325120D01*
Y819150D01*
X340355D02*
X345433D01*
X342894D01*
Y834385D01*
X340355Y831846D01*
X950437Y939796D02*
X947897Y942335D01*
X942819D01*
X940280Y939796D01*
Y929639D01*
X942819Y927100D01*
X947897D01*
X950437Y929639D01*
X963133Y927100D02*
Y942335D01*
X955515Y934717D01*
X965672D01*
X914397Y1188716D02*
X911858Y1191255D01*
X906779D01*
X904240Y1188716D01*
Y1178559D01*
X906779Y1176020D01*
X911858D01*
X914397Y1178559D01*
X929632Y1176020D02*
X919475D01*
X929632Y1186177D01*
Y1188716D01*
X927093Y1191255D01*
X922014D01*
X919475Y1188716D01*
X1159510Y868675D02*
Y853440D01*
X1167128D01*
X1169667Y855979D01*
Y858518D01*
X1167128Y861058D01*
X1159510D01*
X1167128D01*
X1169667Y863597D01*
Y866136D01*
X1167128Y868675D01*
X1159510D01*
X1174745Y866136D02*
X1177284Y868675D01*
X1182363D01*
X1184902Y866136D01*
Y863597D01*
X1182363Y861058D01*
X1179823D01*
X1182363D01*
X1184902Y858518D01*
Y855979D01*
X1182363Y853440D01*
X1177284D01*
X1174745Y855979D01*
X971547Y805179D02*
Y815336D01*
X969007Y817875D01*
X963929D01*
X961390Y815336D01*
Y805179D01*
X963929Y802640D01*
X969007D01*
X966468Y807718D02*
X971547Y802640D01*
X969007D02*
X971547Y805179D01*
X976625Y802640D02*
X981703D01*
X979164D01*
Y817875D01*
X976625Y815336D01*
X328930Y889065D02*
Y873830D01*
X336548D01*
X339087Y876369D01*
Y878908D01*
X336548Y881448D01*
X328930D01*
X336548D01*
X339087Y883987D01*
Y886526D01*
X336548Y889065D01*
X328930D01*
X344165Y873830D02*
X349243D01*
X346704D01*
Y889065D01*
X344165Y886526D01*
X924557Y882645D02*
X919478D01*
X922018D01*
Y869949D01*
X919478Y867410D01*
X916939D01*
X914400Y869949D01*
X929635Y867410D02*
X934713D01*
X932174D01*
Y882645D01*
X929635Y880106D01*
X890267Y882645D02*
X885188D01*
X887728D01*
Y869949D01*
X885188Y867410D01*
X882649D01*
X880110Y869949D01*
X905502Y867410D02*
X895345D01*
X905502Y877567D01*
Y880106D01*
X902963Y882645D01*
X897884D01*
X895345Y880106D01*
X853437Y882645D02*
X848358D01*
X850898D01*
Y869949D01*
X848358Y867410D01*
X845819D01*
X843280Y869949D01*
X858515Y880106D02*
X861054Y882645D01*
X866133D01*
X868672Y880106D01*
Y877567D01*
X866133Y875027D01*
X863593D01*
X866133D01*
X868672Y872488D01*
Y869949D01*
X866133Y867410D01*
X861054D01*
X858515Y869949D01*
X1221737Y1032505D02*
X1216658D01*
X1219197D01*
Y1019809D01*
X1216658Y1017270D01*
X1214119D01*
X1211580Y1019809D01*
X1234433Y1017270D02*
Y1032505D01*
X1226815Y1024887D01*
X1236972D01*
X360680Y793750D02*
Y808985D01*
X368298D01*
X370837Y806446D01*
Y801367D01*
X368298Y798828D01*
X360680D01*
X375915Y793750D02*
X380993D01*
X378454D01*
Y808985D01*
X375915Y806446D01*
X427990Y791210D02*
Y806445D01*
X435607D01*
X438147Y803906D01*
Y798828D01*
X435607Y796288D01*
X427990D01*
X453382Y791210D02*
X443225D01*
X453382Y801367D01*
Y803906D01*
X450843Y806445D01*
X445764D01*
X443225Y803906D01*
X1106170Y1023620D02*
Y1038855D01*
X1113788D01*
X1116327Y1036316D01*
Y1031237D01*
X1113788Y1028698D01*
X1106170D01*
X1129023Y1023620D02*
Y1038855D01*
X1121405Y1031237D01*
X1131562D01*
X1098550Y876300D02*
Y891535D01*
X1106168D01*
X1108707Y888996D01*
Y883917D01*
X1106168Y881378D01*
X1098550D01*
X1123942Y891535D02*
X1113785D01*
Y883917D01*
X1118863Y886457D01*
X1121403D01*
X1123942Y883917D01*
Y878839D01*
X1121403Y876300D01*
X1116324D01*
X1113785Y878839D01*
X994410Y1032510D02*
Y1047745D01*
X1002028D01*
X1004567Y1045206D01*
Y1040127D01*
X1002028Y1037588D01*
X994410D01*
X1019802Y1047745D02*
X1014723Y1045206D01*
X1009645Y1040127D01*
Y1035049D01*
X1012184Y1032510D01*
X1017263D01*
X1019802Y1035049D01*
Y1037588D01*
X1017263Y1040127D01*
X1009645D01*
X1257300Y1089660D02*
Y1104895D01*
X1264918D01*
X1267457Y1102356D01*
Y1097278D01*
X1264918Y1094738D01*
X1257300D01*
X1272535Y1104895D02*
X1282692D01*
Y1102356D01*
X1272535Y1092199D01*
Y1089660D01*
X1257681Y994029D02*
Y1009264D01*
X1265298D01*
X1267838Y1006725D01*
Y1001646D01*
X1265298Y999107D01*
X1257681D01*
X1272916Y1006725D02*
X1275455Y1009264D01*
X1280534D01*
X1283073Y1006725D01*
Y1004186D01*
X1280534Y1001646D01*
X1283073Y999107D01*
Y996568D01*
X1280534Y994029D01*
X1275455D01*
X1272916Y996568D01*
Y999107D01*
X1275455Y1001646D01*
X1272916Y1004186D01*
Y1006725D01*
X1275455Y1001646D02*
X1280534D01*
X903946Y930910D02*
Y946145D01*
X911563D01*
X914102Y943606D01*
Y938528D01*
X911563Y935988D01*
X903946D01*
X909024D02*
X914102Y930910D01*
X919181D02*
X924259D01*
X921720D01*
Y946145D01*
X919181Y943606D01*
X926806Y971550D02*
Y986785D01*
X934423D01*
X936962Y984246D01*
Y979167D01*
X934423Y976628D01*
X926806D01*
X931884D02*
X936962Y971550D01*
X952197D02*
X942041D01*
X952197Y981707D01*
Y984246D01*
X949658Y986785D01*
X944580D01*
X942041Y984246D01*
X1003300Y1211580D02*
Y1226815D01*
X1010918D01*
X1013457Y1224276D01*
Y1219197D01*
X1010918Y1216658D01*
X1003300D01*
X1008378D02*
X1013457Y1211580D01*
X1026153D02*
Y1226815D01*
X1018535Y1219197D01*
X1028692D01*
X1233170Y1120140D02*
Y1128137D01*
X1237169Y1132136D01*
X1241167Y1128137D01*
Y1120140D01*
Y1126138D01*
X1233170D01*
X1251164Y1132136D02*
X1247166D01*
X1245166Y1130137D01*
Y1122139D01*
X1247166Y1120140D01*
X1251164D01*
X1253164Y1122139D01*
Y1130137D01*
X1251164Y1132136D01*
X1233170Y1156266D02*
Y1144270D01*
X1239168D01*
X1241167Y1146269D01*
Y1154267D01*
X1239168Y1156266D01*
X1233170D01*
X1251164D02*
X1247166D01*
X1245166Y1154267D01*
Y1146269D01*
X1247166Y1144270D01*
X1251164D01*
X1253164Y1146269D01*
Y1154267D01*
X1251164Y1156266D01*
X1233170Y942340D02*
Y950337D01*
X1237169Y954336D01*
X1241167Y950337D01*
Y942340D01*
Y948338D01*
X1233170D01*
X1251164Y954336D02*
X1247166D01*
X1245166Y952337D01*
Y944339D01*
X1247166Y942340D01*
X1251164D01*
X1253164Y944339D01*
Y952337D01*
X1251164Y954336D01*
X1233170Y928936D02*
Y916940D01*
X1239168D01*
X1241167Y918939D01*
Y926937D01*
X1239168Y928936D01*
X1233170D01*
X1251164D02*
X1247166D01*
X1245166Y926937D01*
Y918939D01*
X1247166Y916940D01*
X1251164D01*
X1253164Y918939D01*
Y926937D01*
X1251164Y928936D01*
X1228467Y977737D02*
X1226468Y979736D01*
X1222469D01*
X1220470Y977737D01*
Y969739D01*
X1222469Y967740D01*
X1226468D01*
X1228467Y969739D01*
Y973738D01*
X1224469D01*
X1232466Y967740D02*
Y979736D01*
X1240463Y967740D01*
Y979736D01*
X1244462D02*
Y967740D01*
X1250460D01*
X1252460Y969739D01*
Y977737D01*
X1250460Y979736D01*
X1244462D01*
X1228467Y1179667D02*
X1226468Y1181666D01*
X1222469D01*
X1220470Y1179667D01*
Y1171669D01*
X1222469Y1169670D01*
X1226468D01*
X1228467Y1171669D01*
Y1175668D01*
X1224469D01*
X1232466Y1169670D02*
Y1181666D01*
X1240463Y1169670D01*
Y1181666D01*
X1244462D02*
Y1169670D01*
X1250460D01*
X1252460Y1171669D01*
Y1179667D01*
X1250460Y1181666D01*
X1244462D01*
X1267837Y1229926D02*
X1259840D01*
Y1223928D01*
X1263839Y1225927D01*
X1265838D01*
X1267837Y1223928D01*
Y1219929D01*
X1265838Y1217930D01*
X1261839D01*
X1259840Y1219929D01*
X1271836Y1229926D02*
Y1221929D01*
X1275835Y1217930D01*
X1279834Y1221929D01*
Y1229926D01*
X1241167Y900996D02*
X1233170D01*
Y894998D01*
X1237169Y896997D01*
X1239168D01*
X1241167Y894998D01*
Y890999D01*
X1239168Y889000D01*
X1235169D01*
X1233170Y890999D01*
X1245166Y900996D02*
Y892999D01*
X1249165Y889000D01*
X1253164Y892999D01*
Y900996D01*
X1043940Y839118D02*
X1051937D01*
X1042670Y865788D02*
X1050667D01*
X1046669Y869787D02*
Y861789D01*
X1130677Y912967D02*
X1128678Y914966D01*
X1124679D01*
X1122680Y912967D01*
Y910967D01*
X1124679Y908968D01*
X1128678D01*
X1130677Y906969D01*
Y904969D01*
X1128678Y902970D01*
X1124679D01*
X1122680Y904969D01*
X1134676Y914966D02*
Y902970D01*
X1140674D01*
X1142673Y904969D01*
Y912967D01*
X1140674Y914966D01*
X1134676D01*
X1146672Y902970D02*
Y910967D01*
X1150671Y914966D01*
X1154670Y910967D01*
Y902970D01*
Y908968D01*
X1146672D01*
X1140837Y1062827D02*
X1138838Y1064826D01*
X1134839D01*
X1132840Y1062827D01*
Y1060827D01*
X1134839Y1058828D01*
X1138838D01*
X1140837Y1056829D01*
Y1054829D01*
X1138838Y1052830D01*
X1134839D01*
X1132840Y1054829D01*
X1144836Y1064826D02*
Y1052830D01*
X1150834D01*
X1152833Y1054829D01*
Y1062827D01*
X1150834Y1064826D01*
X1144836D01*
X1156832Y1052830D02*
Y1060827D01*
X1160831Y1064826D01*
X1164830Y1060827D01*
Y1052830D01*
Y1058828D01*
X1156832D01*
X1131947Y939637D02*
X1129948Y941636D01*
X1125949D01*
X1123950Y939637D01*
Y937637D01*
X1125949Y935638D01*
X1129948D01*
X1131947Y933639D01*
Y931639D01*
X1129948Y929640D01*
X1125949D01*
X1123950Y931639D01*
X1143943Y939637D02*
X1141944Y941636D01*
X1137945D01*
X1135946Y939637D01*
Y931639D01*
X1137945Y929640D01*
X1141944D01*
X1143943Y931639D01*
X1147942Y941636D02*
Y929640D01*
X1155940D01*
X1142107Y1088227D02*
X1140108Y1090226D01*
X1136109D01*
X1134110Y1088227D01*
Y1086227D01*
X1136109Y1084228D01*
X1140108D01*
X1142107Y1082229D01*
Y1080229D01*
X1140108Y1078230D01*
X1136109D01*
X1134110Y1080229D01*
X1154103Y1088227D02*
X1152104Y1090226D01*
X1148105D01*
X1146106Y1088227D01*
Y1080229D01*
X1148105Y1078230D01*
X1152104D01*
X1154103Y1080229D01*
X1158102Y1090226D02*
Y1078230D01*
X1166100D01*
X1131947Y963767D02*
X1129948Y965766D01*
X1125949D01*
X1123950Y963767D01*
Y955769D01*
X1125949Y953770D01*
X1129948D01*
X1131947Y955769D01*
Y959768D01*
X1127949D01*
X1135946Y953770D02*
Y965766D01*
X1143943Y953770D01*
Y965766D01*
X1147942D02*
Y953770D01*
X1153940D01*
X1155940Y955769D01*
Y963767D01*
X1153940Y965766D01*
X1147942D01*
X1142107Y1113627D02*
X1140108Y1115626D01*
X1136109D01*
X1134110Y1113627D01*
Y1105629D01*
X1136109Y1103630D01*
X1140108D01*
X1142107Y1105629D01*
Y1109628D01*
X1138109D01*
X1146106Y1103630D02*
Y1115626D01*
X1154103Y1103630D01*
Y1115626D01*
X1158102D02*
Y1103630D01*
X1164100D01*
X1166100Y1105629D01*
Y1113627D01*
X1164100Y1115626D01*
X1158102D01*
X1125220Y990437D02*
X1127219Y992436D01*
X1131218D01*
X1133217Y990437D01*
Y988437D01*
X1131218Y986438D01*
X1129219D01*
X1131218D01*
X1133217Y984439D01*
Y982439D01*
X1131218Y980440D01*
X1127219D01*
X1125220Y982439D01*
X1137216Y980440D02*
Y982439D01*
X1139215D01*
Y980440D01*
X1137216D01*
X1147213Y990437D02*
X1149212Y992436D01*
X1153211D01*
X1155210Y990437D01*
Y988437D01*
X1153211Y986438D01*
X1151211D01*
X1153211D01*
X1155210Y984439D01*
Y982439D01*
X1153211Y980440D01*
X1149212D01*
X1147213Y982439D01*
X1159209Y992436D02*
Y984439D01*
X1163208Y980440D01*
X1167206Y984439D01*
Y992436D01*
X1132840Y1140297D02*
X1134839Y1142296D01*
X1138838D01*
X1140837Y1140297D01*
Y1138297D01*
X1138838Y1136298D01*
X1136839D01*
X1138838D01*
X1140837Y1134299D01*
Y1132299D01*
X1138838Y1130300D01*
X1134839D01*
X1132840Y1132299D01*
X1144836Y1130300D02*
Y1132299D01*
X1146835D01*
Y1130300D01*
X1144836D01*
X1154833Y1140297D02*
X1156832Y1142296D01*
X1160831D01*
X1162830Y1140297D01*
Y1138297D01*
X1160831Y1136298D01*
X1158831D01*
X1160831D01*
X1162830Y1134299D01*
Y1132299D01*
X1160831Y1130300D01*
X1156832D01*
X1154833Y1132299D01*
X1166829Y1142296D02*
Y1134299D01*
X1170828Y1130300D01*
X1174826Y1134299D01*
Y1142296D01*
X880487Y992436D02*
X872490D01*
Y986438D01*
X876489Y988437D01*
X878488D01*
X880487Y986438D01*
Y982439D01*
X878488Y980440D01*
X874489D01*
X872490Y982439D01*
X884486Y992436D02*
Y984439D01*
X888485Y980440D01*
X892484Y984439D01*
Y992436D01*
X869950Y1018377D02*
X871949Y1020376D01*
X875948D01*
X877947Y1018377D01*
Y1016377D01*
X875948Y1014378D01*
X873949D01*
X875948D01*
X877947Y1012379D01*
Y1010379D01*
X875948Y1008380D01*
X871949D01*
X869950Y1010379D01*
X881946Y1008380D02*
Y1010379D01*
X883945D01*
Y1008380D01*
X881946D01*
X891943Y1018377D02*
X893942Y1020376D01*
X897941D01*
X899940Y1018377D01*
Y1016377D01*
X897941Y1014378D01*
X895941D01*
X897941D01*
X899940Y1012379D01*
Y1010379D01*
X897941Y1008380D01*
X893942D01*
X891943Y1010379D01*
X903939Y1020376D02*
Y1012379D01*
X907938Y1008380D01*
X911936Y1012379D01*
Y1020376D01*
X880487Y1043777D02*
X878488Y1045776D01*
X874489D01*
X872490Y1043777D01*
Y1035779D01*
X874489Y1033780D01*
X878488D01*
X880487Y1035779D01*
Y1039778D01*
X876489D01*
X884486Y1033780D02*
Y1045776D01*
X892484Y1033780D01*
Y1045776D01*
X896482D02*
Y1033780D01*
X902480D01*
X904480Y1035779D01*
Y1043777D01*
X902480Y1045776D01*
X896482D01*
X1021080Y1066800D02*
Y1078796D01*
X1027078D01*
X1029077Y1076797D01*
Y1072798D01*
X1027078Y1070799D01*
X1021080D01*
X1025079D02*
X1029077Y1066800D01*
X1033076Y1078796D02*
X1041074Y1066800D01*
Y1078796D02*
X1033076Y1066800D01*
X1022350Y1102926D02*
X1030347D01*
X1026349D01*
Y1090930D01*
X1034346Y1102926D02*
X1042344Y1090930D01*
Y1102926D02*
X1034346Y1090930D01*
X1029077Y1130866D02*
X1021080D01*
Y1124868D01*
X1025079Y1126867D01*
X1027078D01*
X1029077Y1124868D01*
Y1120869D01*
X1027078Y1118870D01*
X1023079D01*
X1021080Y1120869D01*
X1033076Y1130866D02*
Y1122869D01*
X1037075Y1118870D01*
X1041074Y1122869D01*
Y1130866D01*
X1029077Y1154267D02*
X1027078Y1156266D01*
X1023079D01*
X1021080Y1154267D01*
Y1146269D01*
X1023079Y1144270D01*
X1027078D01*
X1029077Y1146269D01*
Y1150268D01*
X1025079D01*
X1033076Y1144270D02*
Y1156266D01*
X1041074Y1144270D01*
Y1156266D01*
X1045072D02*
Y1144270D01*
X1051070D01*
X1053070Y1146269D01*
Y1154267D01*
X1051070Y1156266D01*
X1045072D01*
X937097Y1225173D02*
X939096Y1227172D01*
Y1231171D01*
X937097Y1233170D01*
X929099D01*
X927100Y1231171D01*
Y1227172D01*
X929099Y1225173D01*
X933098D01*
Y1229171D01*
X927100Y1221174D02*
X939096D01*
X927100Y1213176D01*
X939096D01*
Y1209178D02*
X927100D01*
Y1203180D01*
X929099Y1201180D01*
X937097D01*
X939096Y1203180D01*
Y1209178D01*
X914966Y1223903D02*
Y1231900D01*
X908968D01*
X910967Y1227901D01*
Y1225902D01*
X908968Y1223903D01*
X904969D01*
X902970Y1225902D01*
Y1229901D01*
X904969Y1231900D01*
X914966Y1219904D02*
X906969D01*
X902970Y1215905D01*
X906969Y1211907D01*
X914966D01*
X887567Y1223903D02*
X889566Y1225902D01*
Y1229901D01*
X887567Y1231900D01*
X885567D01*
X883568Y1229901D01*
Y1225902D01*
X881569Y1223903D01*
X879569D01*
X877570Y1225902D01*
Y1229901D01*
X879569Y1231900D01*
X887567Y1211907D02*
X889566Y1213906D01*
Y1217905D01*
X887567Y1219904D01*
X879569D01*
X877570Y1217905D01*
Y1213906D01*
X879569Y1211907D01*
X889566Y1207908D02*
X877570D01*
Y1199910D01*
X860897Y1225173D02*
X862896Y1227172D01*
Y1231171D01*
X860897Y1233170D01*
X858897D01*
X856898Y1231171D01*
Y1227172D01*
X854899Y1225173D01*
X852899D01*
X850900Y1227172D01*
Y1231171D01*
X852899Y1233170D01*
X862896Y1221174D02*
X850900D01*
Y1215176D01*
X852899Y1213176D01*
X860897D01*
X862896Y1215176D01*
Y1221174D01*
X850900Y1209178D02*
X858897D01*
X862896Y1205179D01*
X858897Y1201180D01*
X850900D01*
X856898D01*
Y1209178D01*
D15*
X428390Y884050D02*
Y1059050D01*
X478390Y884050D02*
Y1059050D01*
X428390D02*
X478390D01*
X428390Y884050D02*
X478390D01*
M02*
