G04*
G04 #@! TF.GenerationSoftware,Altium Limited,Altium Designer,20.0.2 (26)*
G04*
G04 Layer_Color=255*
%FSLAX44Y44*%
%MOMM*%
G71*
G01*
G75*
%ADD16R,1.3000X0.6000*%
%ADD17R,0.8000X0.6000*%
%ADD18R,0.7000X1.2000*%
%ADD19R,0.8000X1.0000*%
%ADD20R,0.5000X0.4500*%
%ADD21R,0.6725X0.7154*%
%ADD22R,1.4546X1.5562*%
%ADD23R,2.0500X2.6500*%
%ADD24R,0.6900X0.7200*%
%ADD25R,4.0000X2.1500*%
%ADD26R,0.7154X0.6725*%
%ADD41R,1.4500X1.4500*%
%ADD42C,1.4500*%
%ADD43C,1.5700*%
%ADD51C,1.4000*%
%ADD52C,1.8000*%
%ADD53C,1.2000*%
%ADD54R,1.5000X1.5000*%
%ADD55C,1.5000*%
%ADD56R,1.5000X1.5000*%
%ADD57C,3.0000*%
%ADD58C,2.0000*%
%ADD59R,2.0000X2.0000*%
%ADD60C,1.2690*%
%ADD61R,1.4930X1.4930*%
%ADD62C,1.4930*%
D16*
X981450Y960360D02*
D03*
Y990360D02*
D03*
D17*
X978950Y975360D02*
D03*
D18*
X1228960Y821170D02*
D03*
X1203960D02*
D03*
X1178960D02*
D03*
D19*
X1036320Y900430D02*
D03*
X1021320D02*
D03*
D20*
X1015880Y1176020D02*
D03*
X1008380D02*
D03*
X1018480Y1235710D02*
D03*
X1010980D02*
D03*
D21*
X845820Y1145540D02*
D03*
Y1155111D02*
D03*
D22*
X947052Y1027430D02*
D03*
X965568D02*
D03*
D23*
X415910Y836930D02*
D03*
X366410D02*
D03*
D24*
X953770Y951230D02*
D03*
X944570D02*
D03*
D25*
X959330Y1122680D02*
D03*
X892330D02*
D03*
D26*
X908050Y960120D02*
D03*
X917621D02*
D03*
X943021Y1000760D02*
D03*
X933450D02*
D03*
D41*
X604890Y800960D02*
D03*
D42*
X682890D02*
D03*
X529890Y1225960D02*
D03*
X757890D02*
D03*
D43*
X1217930Y877570D02*
D03*
X925830Y904240D02*
D03*
X889000D02*
D03*
X853440Y905510D02*
D03*
X1225550Y1000760D02*
D03*
D51*
X368300Y1136650D02*
D03*
X438300D02*
D03*
Y1216650D02*
D03*
X368300D02*
D03*
D52*
X1231900Y1211580D02*
D03*
X1206500D02*
D03*
X1181100D02*
D03*
X1155700D02*
D03*
X1130300D02*
D03*
X1104900D02*
D03*
D53*
X453390Y896550D02*
D03*
Y1046550D02*
D03*
D54*
X932180Y1248410D02*
D03*
X368300Y774700D02*
D03*
X435610D02*
D03*
D55*
X906780Y1248410D02*
D03*
X881380D02*
D03*
X855980D02*
D03*
X854710Y988060D02*
D03*
Y1013460D02*
D03*
X1026160Y839470D02*
D03*
X364490Y1005910D02*
D03*
X393700Y774700D02*
D03*
X461010D02*
D03*
X1117600Y1109980D02*
D03*
Y1084580D02*
D03*
Y1059180D02*
D03*
X1107440Y960120D02*
D03*
Y934720D02*
D03*
Y909320D02*
D03*
X1005840Y1123950D02*
D03*
Y1098550D02*
D03*
Y1073150D02*
D03*
X1268730Y1176020D02*
D03*
Y1150620D02*
D03*
Y1125220D02*
D03*
Y922020D02*
D03*
Y947420D02*
D03*
Y972820D02*
D03*
D56*
X854710Y1038860D02*
D03*
X1026160Y864870D02*
D03*
X364490Y930910D02*
D03*
X1117600Y1135380D02*
D03*
X1107440Y985520D02*
D03*
X1005840Y1149350D02*
D03*
X1268730Y1201420D02*
D03*
Y896620D02*
D03*
D57*
X1065470Y1246470D02*
D03*
X820370D02*
D03*
Y776970D02*
D03*
X1065470D02*
D03*
D58*
X815670Y811270D02*
D03*
Y836670D02*
D03*
Y862070D02*
D03*
Y887470D02*
D03*
Y912870D02*
D03*
Y938270D02*
D03*
Y963670D02*
D03*
Y989070D02*
D03*
Y1014470D02*
D03*
Y1039870D02*
D03*
Y1065270D02*
D03*
Y1090670D02*
D03*
Y1116070D02*
D03*
Y1141470D02*
D03*
Y1166870D02*
D03*
X1069670Y811270D02*
D03*
Y836670D02*
D03*
Y862070D02*
D03*
Y887470D02*
D03*
Y912870D02*
D03*
Y938270D02*
D03*
Y963670D02*
D03*
Y989070D02*
D03*
Y1014470D02*
D03*
Y1039870D02*
D03*
Y1065270D02*
D03*
Y1090670D02*
D03*
Y1116070D02*
D03*
Y1141470D02*
D03*
D59*
Y1166870D02*
D03*
D60*
X1123950Y787400D02*
D03*
Y812800D02*
D03*
Y838200D02*
D03*
D61*
X979170Y842680D02*
D03*
D62*
Y868680D02*
D03*
Y894680D02*
D03*
M02*
