G04*
G04 #@! TF.GenerationSoftware,Altium Limited,Altium Designer,20.0.2 (26)*
G04*
G04 Layer_Physical_Order=2*
G04 Layer_Color=16711680*
%FSLAX44Y44*%
%MOMM*%
G71*
G01*
G75*
%ADD14C,0.2540*%
%ADD39C,1.5700*%
%ADD47C,1.4500*%
%ADD48R,1.4500X1.4500*%
%ADD51C,1.4930*%
%ADD52R,1.4930X1.4930*%
%ADD53C,1.5000*%
%ADD54R,1.5000X1.5000*%
%ADD55C,1.2690*%
%ADD56R,1.5000X1.5000*%
%ADD57R,2.0000X2.0000*%
%ADD58C,2.0000*%
%ADD59C,3.0000*%
%ADD60C,1.8000*%
%ADD61C,1.4000*%
%ADD62C,1.2000*%
%ADD63C,1.2700*%
G36*
X1287780Y758190D02*
X1100422D01*
X1099936Y759363D01*
X1120775Y780202D01*
X1121897Y779737D01*
X1123950Y779467D01*
X1126003Y779737D01*
X1127916Y780530D01*
X1129559Y781791D01*
X1130820Y783434D01*
X1131612Y785347D01*
X1131883Y787400D01*
X1131612Y789453D01*
X1130820Y791366D01*
X1129559Y793009D01*
X1127916Y794270D01*
X1126003Y795062D01*
X1123950Y795333D01*
X1121897Y795062D01*
X1119984Y794270D01*
X1118341Y793009D01*
X1117080Y791366D01*
X1116288Y789453D01*
X1116017Y787400D01*
X1116288Y785347D01*
X1116752Y784225D01*
X1094552Y762025D01*
X1074979D01*
X1074959Y762104D01*
X1074847Y763295D01*
X1077208Y765232D01*
X1079272Y767748D01*
X1080806Y770618D01*
X1081751Y773732D01*
X1082070Y776970D01*
X1081751Y780209D01*
X1080806Y783323D01*
X1079272Y786192D01*
X1077208Y788708D01*
X1074692Y790772D01*
X1071823Y792306D01*
X1068708Y793251D01*
X1065470Y793570D01*
X1062232Y793251D01*
X1059118Y792306D01*
X1056248Y790772D01*
X1053732Y788708D01*
X1051668Y786192D01*
X1050134Y783323D01*
X1049189Y780209D01*
X1048870Y776970D01*
X1049189Y773732D01*
X1050134Y770618D01*
X1051668Y767748D01*
X1053732Y765232D01*
X1056093Y763295D01*
X1055981Y762104D01*
X1055961Y762025D01*
X1046668D01*
X1040435Y768258D01*
Y828040D01*
X1040218Y829129D01*
X1039601Y830051D01*
X1034242Y835411D01*
X1034948Y837115D01*
X1035258Y839470D01*
X1034948Y841825D01*
X1034039Y844019D01*
X1032593Y845903D01*
X1030709Y847349D01*
X1028515Y848258D01*
X1026160Y848568D01*
X1023805Y848258D01*
X1021611Y847349D01*
X1020566Y846547D01*
X982153Y884960D01*
X982299Y886251D01*
X983701Y886832D01*
X985578Y888272D01*
X987018Y890149D01*
X987924Y892335D01*
X988232Y894680D01*
X987924Y897026D01*
X987018Y899211D01*
X985578Y901088D01*
X983701Y902528D01*
X981516Y903434D01*
X979170Y903742D01*
X976824Y903434D01*
X974639Y902528D01*
X972762Y901088D01*
X971322Y899211D01*
X970416Y897026D01*
X970108Y894680D01*
X970416Y892335D01*
X971322Y890149D01*
X972762Y888272D01*
X974639Y886832D01*
X976325Y886133D01*
Y883920D01*
X976542Y882831D01*
X977159Y881909D01*
X980176Y878891D01*
X979583Y877688D01*
X979170Y877742D01*
X976824Y877434D01*
X974639Y876528D01*
X972762Y875088D01*
X971322Y873211D01*
X970416Y871025D01*
X970108Y868680D01*
X970416Y866335D01*
X971322Y864149D01*
X972762Y862272D01*
X974639Y860832D01*
X976824Y859926D01*
X979170Y859618D01*
X981516Y859926D01*
X983701Y860832D01*
X985578Y862272D01*
X987018Y864149D01*
X987924Y866335D01*
X988232Y868680D01*
X988178Y869093D01*
X989381Y869686D01*
X1017357Y841710D01*
X1017062Y839470D01*
X1017372Y837115D01*
X1018281Y834921D01*
X1019727Y833037D01*
X1021611Y831591D01*
X1023805Y830682D01*
X1026160Y830372D01*
X1028515Y830682D01*
X1030219Y831388D01*
X1034745Y826862D01*
Y767080D01*
X1034962Y765991D01*
X1035579Y765069D01*
X1041284Y759363D01*
X1040798Y758190D01*
X1033415D01*
Y821870D01*
X1032933Y823033D01*
X1031770Y823515D01*
X854870D01*
X853707Y823033D01*
X853225Y821870D01*
Y758190D01*
X309880Y758190D01*
X309880Y1270000D01*
X1287780D01*
X1287780Y758190D01*
D02*
G37*
%LPC*%
G36*
X942220Y1258450D02*
X933450D01*
Y1249680D01*
X942220D01*
Y1258450D01*
D02*
G37*
G36*
X930910D02*
X922140D01*
Y1249680D01*
X930910D01*
Y1258450D01*
D02*
G37*
G36*
X906780Y1257508D02*
X904425Y1257198D01*
X902231Y1256289D01*
X900347Y1254843D01*
X898901Y1252959D01*
X897992Y1250765D01*
X897682Y1248410D01*
X897992Y1246055D01*
X898901Y1243861D01*
X900347Y1241977D01*
X902231Y1240531D01*
X904425Y1239622D01*
X906780Y1239312D01*
X909135Y1239622D01*
X911329Y1240531D01*
X913213Y1241977D01*
X914659Y1243861D01*
X915568Y1246055D01*
X915878Y1248410D01*
X915568Y1250765D01*
X914659Y1252959D01*
X913213Y1254843D01*
X911329Y1256289D01*
X909135Y1257198D01*
X906780Y1257508D01*
D02*
G37*
G36*
X942220Y1247140D02*
X933450D01*
Y1238370D01*
X942220D01*
Y1247140D01*
D02*
G37*
G36*
X930910D02*
X922140D01*
Y1238370D01*
X930910D01*
Y1247140D01*
D02*
G37*
G36*
X820370Y1263070D02*
X817132Y1262751D01*
X814017Y1261806D01*
X811148Y1260272D01*
X808632Y1258208D01*
X806568Y1255692D01*
X805034Y1252822D01*
X804089Y1249708D01*
X803770Y1246470D01*
X804089Y1243232D01*
X805034Y1240117D01*
X806568Y1237248D01*
X808632Y1234732D01*
X811148Y1232668D01*
X814017Y1231134D01*
X817132Y1230189D01*
X820370Y1229870D01*
X823608Y1230189D01*
X826722Y1231134D01*
X829592Y1232668D01*
X832108Y1234732D01*
X834172Y1237248D01*
X835706Y1240117D01*
X836651Y1243232D01*
X836970Y1246470D01*
X836651Y1249708D01*
X835706Y1252822D01*
X834172Y1255692D01*
X832108Y1258208D01*
X829592Y1260272D01*
X826722Y1261806D01*
X823608Y1262751D01*
X820370Y1263070D01*
D02*
G37*
G36*
X1065470D02*
X1062232Y1262751D01*
X1059118Y1261806D01*
X1056248Y1260272D01*
X1053732Y1258208D01*
X1051668Y1255692D01*
X1050134Y1252822D01*
X1049189Y1249708D01*
X1048870Y1246470D01*
X1049189Y1243232D01*
X1050134Y1240117D01*
X1051668Y1237248D01*
X1053732Y1234732D01*
X1056248Y1232668D01*
X1059118Y1231134D01*
X1059774Y1230935D01*
X1059586Y1229665D01*
X997940D01*
X997474Y1230789D01*
X996213Y1232433D01*
X994569Y1233694D01*
X992654Y1234487D01*
X990600Y1234758D01*
X988546Y1234487D01*
X986631Y1233694D01*
X984987Y1232433D01*
X983726Y1230789D01*
X982933Y1228875D01*
X982662Y1226820D01*
X982933Y1224765D01*
X983726Y1222851D01*
X984987Y1221207D01*
X986631Y1219946D01*
X988546Y1219153D01*
X990600Y1218882D01*
X992654Y1219153D01*
X994569Y1219946D01*
X996213Y1221207D01*
X997474Y1222851D01*
X997940Y1223975D01*
X1126751D01*
X1127004Y1222705D01*
X1124480Y1221660D01*
X1122070Y1219810D01*
X1120220Y1217400D01*
X1119057Y1214593D01*
X1118828Y1212850D01*
X1130300D01*
X1141772D01*
X1141543Y1214593D01*
X1140380Y1217400D01*
X1138530Y1219810D01*
X1136120Y1221660D01*
X1133596Y1222705D01*
X1133849Y1223975D01*
X1215482D01*
X1216374Y1223084D01*
X1216374Y1223083D01*
X1222670Y1216787D01*
X1221651Y1214326D01*
X1221289Y1211580D01*
X1221651Y1208834D01*
X1222711Y1206275D01*
X1224397Y1204077D01*
X1224710Y1203837D01*
X1224301Y1202635D01*
X1214099D01*
X1213690Y1203837D01*
X1214003Y1204077D01*
X1215689Y1206275D01*
X1216749Y1208834D01*
X1217111Y1211580D01*
X1216749Y1214326D01*
X1215689Y1216885D01*
X1214003Y1219083D01*
X1211805Y1220769D01*
X1209246Y1221829D01*
X1206500Y1222191D01*
X1203754Y1221829D01*
X1201195Y1220769D01*
X1198997Y1219083D01*
X1197311Y1216885D01*
X1196251Y1214326D01*
X1195889Y1211580D01*
X1196251Y1208834D01*
X1197311Y1206275D01*
X1198997Y1204077D01*
X1199310Y1203837D01*
X1198901Y1202635D01*
X1188699D01*
X1188290Y1203837D01*
X1188603Y1204077D01*
X1190289Y1206275D01*
X1191349Y1208834D01*
X1191711Y1211580D01*
X1191349Y1214326D01*
X1190289Y1216885D01*
X1188603Y1219083D01*
X1186405Y1220769D01*
X1183846Y1221829D01*
X1181100Y1222191D01*
X1178354Y1221829D01*
X1175795Y1220769D01*
X1173597Y1219083D01*
X1171911Y1216885D01*
X1170851Y1214326D01*
X1170489Y1211580D01*
X1170851Y1208834D01*
X1171911Y1206275D01*
X1173597Y1204077D01*
X1173910Y1203837D01*
X1173501Y1202635D01*
X1163299D01*
X1162890Y1203837D01*
X1163203Y1204077D01*
X1164889Y1206275D01*
X1165949Y1208834D01*
X1166311Y1211580D01*
X1165949Y1214326D01*
X1164889Y1216885D01*
X1163203Y1219083D01*
X1161005Y1220769D01*
X1158446Y1221829D01*
X1155700Y1222191D01*
X1152954Y1221829D01*
X1150395Y1220769D01*
X1148197Y1219083D01*
X1146511Y1216885D01*
X1145451Y1214326D01*
X1145089Y1211580D01*
X1145451Y1208834D01*
X1146511Y1206275D01*
X1148197Y1204077D01*
X1148510Y1203837D01*
X1148101Y1202635D01*
X1139583D01*
X1138956Y1203905D01*
X1140380Y1205760D01*
X1141543Y1208568D01*
X1141772Y1210310D01*
X1130300D01*
X1118828D01*
X1119057Y1208568D01*
X1120220Y1205760D01*
X1121644Y1203905D01*
X1121017Y1202635D01*
X1117868D01*
X1114130Y1206373D01*
X1115149Y1208834D01*
X1115511Y1211580D01*
X1115149Y1214326D01*
X1114089Y1216885D01*
X1112403Y1219083D01*
X1110205Y1220769D01*
X1107646Y1221829D01*
X1104900Y1222191D01*
X1102154Y1221829D01*
X1099595Y1220769D01*
X1097397Y1219083D01*
X1095711Y1216885D01*
X1094651Y1214326D01*
X1094289Y1211580D01*
X1094651Y1208834D01*
X1095670Y1206373D01*
X1085692Y1196395D01*
X1058250D01*
X1057624Y1197665D01*
X1058434Y1198721D01*
X1059227Y1200636D01*
X1059498Y1202690D01*
X1059227Y1204744D01*
X1058434Y1206659D01*
X1057173Y1208303D01*
X1056609Y1208735D01*
X1057040Y1210005D01*
X1059460D01*
X1059926Y1208881D01*
X1061187Y1207237D01*
X1062831Y1205976D01*
X1064745Y1205183D01*
X1066800Y1204912D01*
X1068855Y1205183D01*
X1070769Y1205976D01*
X1072413Y1207237D01*
X1073674Y1208881D01*
X1074467Y1210796D01*
X1074738Y1212850D01*
X1074467Y1214904D01*
X1073674Y1216819D01*
X1072413Y1218463D01*
X1070769Y1219724D01*
X1068855Y1220517D01*
X1066800Y1220788D01*
X1064745Y1220517D01*
X1062831Y1219724D01*
X1061187Y1218463D01*
X1059926Y1216819D01*
X1059460Y1215695D01*
X918118D01*
X889462Y1244351D01*
X890168Y1246055D01*
X890478Y1248410D01*
X890168Y1250765D01*
X889259Y1252959D01*
X887813Y1254843D01*
X885929Y1256289D01*
X883735Y1257198D01*
X881380Y1257508D01*
X879025Y1257198D01*
X876831Y1256289D01*
X874947Y1254843D01*
X873501Y1252959D01*
X872592Y1250765D01*
X872282Y1248410D01*
X872592Y1246055D01*
X873501Y1243861D01*
X874947Y1241977D01*
X876831Y1240531D01*
X879025Y1239622D01*
X881380Y1239312D01*
X883735Y1239622D01*
X885439Y1240328D01*
X914929Y1210839D01*
X915851Y1210222D01*
X916940Y1210005D01*
X1046080D01*
X1046511Y1208735D01*
X1045947Y1208303D01*
X1044686Y1206659D01*
X1044323Y1205785D01*
X902628D01*
X864062Y1244351D01*
X864768Y1246055D01*
X865078Y1248410D01*
X864768Y1250765D01*
X863859Y1252959D01*
X862413Y1254843D01*
X860529Y1256289D01*
X858335Y1257198D01*
X855980Y1257508D01*
X853625Y1257198D01*
X851431Y1256289D01*
X849547Y1254843D01*
X848101Y1252959D01*
X847192Y1250765D01*
X846882Y1248410D01*
X847192Y1246055D01*
X848101Y1243861D01*
X849547Y1241977D01*
X851431Y1240531D01*
X853625Y1239622D01*
X855980Y1239312D01*
X858335Y1239622D01*
X860039Y1240328D01*
X899038Y1201329D01*
X899119Y1199791D01*
X898627Y1199413D01*
X897366Y1197769D01*
X896900Y1196645D01*
X882650D01*
X881561Y1196428D01*
X880639Y1195811D01*
X863692Y1178865D01*
X854430D01*
X853964Y1179989D01*
X852703Y1181633D01*
X851059Y1182894D01*
X849145Y1183687D01*
X847090Y1183958D01*
X845035Y1183687D01*
X843121Y1182894D01*
X841477Y1181633D01*
X840216Y1179989D01*
X839423Y1178074D01*
X839152Y1176020D01*
X839423Y1173966D01*
X840216Y1172051D01*
X841477Y1170407D01*
X843121Y1169146D01*
X845035Y1168353D01*
X847090Y1168082D01*
X849145Y1168353D01*
X851059Y1169146D01*
X852703Y1170407D01*
X853964Y1172051D01*
X854430Y1173175D01*
X864870D01*
X865959Y1173392D01*
X866881Y1174009D01*
X883828Y1190955D01*
X896900D01*
X897366Y1189831D01*
X898627Y1188187D01*
X900271Y1186926D01*
X902186Y1186133D01*
X904240Y1185862D01*
X906294Y1186133D01*
X908209Y1186926D01*
X909853Y1188187D01*
X911114Y1189831D01*
X911907Y1191746D01*
X912178Y1193800D01*
X911907Y1195854D01*
X911114Y1197769D01*
X910304Y1198825D01*
X910930Y1200095D01*
X962647D01*
X962899Y1198825D01*
X961231Y1198134D01*
X959587Y1196873D01*
X958326Y1195229D01*
X957533Y1193315D01*
X957262Y1191260D01*
X957533Y1189205D01*
X958326Y1187291D01*
X959587Y1185647D01*
X961231Y1184386D01*
X962355Y1183920D01*
Y1169474D01*
X827224Y1034343D01*
X826148Y1035062D01*
X826893Y1036863D01*
X827289Y1039870D01*
X826893Y1042877D01*
X825733Y1045680D01*
X823886Y1048086D01*
X821480Y1049933D01*
X818677Y1051094D01*
X815670Y1051489D01*
X812663Y1051094D01*
X809860Y1049933D01*
X807454Y1048086D01*
X805607Y1045680D01*
X804446Y1042877D01*
X804051Y1039870D01*
X804446Y1036863D01*
X805607Y1034060D01*
X807454Y1031654D01*
X809860Y1029807D01*
X812663Y1028647D01*
X815670Y1028251D01*
X818677Y1028647D01*
X820478Y1029392D01*
X821197Y1028316D01*
X818587Y1025705D01*
X815670Y1026089D01*
X812663Y1025694D01*
X809860Y1024533D01*
X807454Y1022686D01*
X805607Y1020280D01*
X804446Y1017477D01*
X804051Y1014470D01*
X804446Y1011463D01*
X805607Y1008660D01*
X807454Y1006254D01*
X809860Y1004407D01*
X812663Y1003247D01*
X815670Y1002851D01*
X818677Y1003247D01*
X821480Y1004407D01*
X823886Y1006254D01*
X825733Y1008660D01*
X826893Y1011463D01*
X827289Y1014470D01*
X826893Y1017477D01*
X825733Y1020280D01*
X823886Y1022686D01*
X823869Y1022942D01*
X843497Y1042569D01*
X844670Y1042083D01*
Y1040130D01*
X853440D01*
Y1048900D01*
X851487D01*
X851001Y1050073D01*
X967212Y1166284D01*
X967828Y1167207D01*
X968045Y1168296D01*
Y1183920D01*
X969169Y1184386D01*
X970813Y1185647D01*
X972074Y1187291D01*
X972867Y1189205D01*
X973138Y1191260D01*
X972867Y1193315D01*
X972074Y1195229D01*
X970813Y1196873D01*
X969169Y1198134D01*
X967501Y1198825D01*
X967753Y1200095D01*
X1044116D01*
X1044686Y1198721D01*
X1045496Y1197665D01*
X1044870Y1196395D01*
X1028450D01*
X1027362Y1196178D01*
X1026439Y1195562D01*
X1019069Y1188191D01*
X1018452Y1187269D01*
X1018235Y1186180D01*
Y1127966D01*
X1017064Y1126795D01*
X1014425D01*
X1013719Y1128499D01*
X1012273Y1130383D01*
X1010389Y1131829D01*
X1008195Y1132738D01*
X1005840Y1133048D01*
X1003485Y1132738D01*
X1001291Y1131829D01*
X999407Y1130383D01*
X997961Y1128499D01*
X997052Y1126305D01*
X996742Y1123950D01*
X997052Y1121595D01*
X997961Y1119401D01*
X999407Y1117517D01*
X1001291Y1116071D01*
X1003485Y1115162D01*
X1005840Y1114852D01*
X1008195Y1115162D01*
X1010389Y1116071D01*
X1012273Y1117517D01*
X1013719Y1119401D01*
X1014425Y1121105D01*
X1018243D01*
X1019331Y1121322D01*
X1020254Y1121939D01*
X1023091Y1124776D01*
X1023708Y1125699D01*
X1023925Y1126787D01*
Y1185002D01*
X1029628Y1190705D01*
X1086870D01*
X1087959Y1190922D01*
X1088882Y1191539D01*
X1099693Y1202350D01*
X1102154Y1201331D01*
X1104900Y1200969D01*
X1107646Y1201331D01*
X1110107Y1202350D01*
X1114678Y1197779D01*
X1115601Y1197162D01*
X1116690Y1196945D01*
X1259710D01*
Y1192400D01*
X1273727D01*
X1279855Y1186272D01*
Y1178163D01*
X1278585Y1178080D01*
X1278512Y1178641D01*
X1277500Y1181083D01*
X1275891Y1183181D01*
X1273793Y1184790D01*
X1271351Y1185802D01*
X1270000Y1185979D01*
Y1176020D01*
Y1166061D01*
X1271351Y1166238D01*
X1273793Y1167250D01*
X1275891Y1168859D01*
X1277500Y1170957D01*
X1278512Y1173399D01*
X1278585Y1173960D01*
X1279855Y1173877D01*
Y974963D01*
X1278585Y974880D01*
X1278512Y975441D01*
X1277500Y977883D01*
X1275891Y979981D01*
X1273793Y981590D01*
X1271351Y982602D01*
X1270000Y982779D01*
Y972820D01*
Y962861D01*
X1271351Y963038D01*
X1273793Y964050D01*
X1275891Y965659D01*
X1277500Y967757D01*
X1278512Y970199D01*
X1278585Y970760D01*
X1279855Y970677D01*
Y911768D01*
X1273727Y905640D01*
X1259710D01*
Y887600D01*
X1265885D01*
Y868588D01*
X1240882Y843585D01*
X1217073D01*
X1215923Y845083D01*
X1214279Y846344D01*
X1212365Y847137D01*
X1210310Y847408D01*
X1208255Y847137D01*
X1206341Y846344D01*
X1204697Y845083D01*
X1203436Y843439D01*
X1202643Y841525D01*
X1202372Y839470D01*
X1202643Y837415D01*
X1203436Y835501D01*
X1204697Y833857D01*
X1206341Y832596D01*
X1208255Y831803D01*
X1210310Y831532D01*
X1212365Y831803D01*
X1214279Y832596D01*
X1215923Y833857D01*
X1217184Y835501D01*
X1217977Y837415D01*
X1218040Y837895D01*
X1242060D01*
X1243149Y838112D01*
X1244071Y838729D01*
X1270741Y865399D01*
X1271358Y866321D01*
X1271575Y867410D01*
Y887600D01*
X1277750D01*
Y901617D01*
X1284711Y908578D01*
X1285328Y909501D01*
X1285545Y910590D01*
Y1187450D01*
X1285328Y1188539D01*
X1284711Y1189462D01*
X1277750Y1196423D01*
Y1210440D01*
X1259710D01*
Y1202635D01*
X1239499D01*
X1239090Y1203837D01*
X1239403Y1204077D01*
X1241089Y1206275D01*
X1242149Y1208834D01*
X1242511Y1211580D01*
X1242149Y1214326D01*
X1241089Y1216885D01*
X1239403Y1219083D01*
X1237205Y1220769D01*
X1234646Y1221829D01*
X1231900Y1222191D01*
X1229154Y1221829D01*
X1226693Y1220810D01*
X1220396Y1227106D01*
X1220396Y1227106D01*
X1218671Y1228831D01*
X1217749Y1229448D01*
X1216660Y1229665D01*
X1071354D01*
X1071166Y1230935D01*
X1071823Y1231134D01*
X1074692Y1232668D01*
X1077208Y1234732D01*
X1079272Y1237248D01*
X1080806Y1240117D01*
X1081751Y1243232D01*
X1082070Y1246470D01*
X1081751Y1249708D01*
X1080806Y1252822D01*
X1079272Y1255692D01*
X1077208Y1258208D01*
X1074692Y1260272D01*
X1071823Y1261806D01*
X1068708Y1262751D01*
X1065470Y1263070D01*
D02*
G37*
G36*
X531160Y1235667D02*
Y1227230D01*
X539597D01*
X539428Y1228516D01*
X538442Y1230897D01*
X536872Y1232942D01*
X534827Y1234512D01*
X532446Y1235498D01*
X531160Y1235667D01*
D02*
G37*
G36*
X528620Y1235667D02*
X527334Y1235498D01*
X524953Y1234512D01*
X522908Y1232942D01*
X521339Y1230897D01*
X520352Y1228516D01*
X520183Y1227230D01*
X528620D01*
Y1235667D01*
D02*
G37*
G36*
X757890Y1234806D02*
X755601Y1234504D01*
X753467Y1233621D01*
X751635Y1232215D01*
X750229Y1230383D01*
X749346Y1228249D01*
X749044Y1225960D01*
X749346Y1223671D01*
X750229Y1221537D01*
X751635Y1219705D01*
X753467Y1218299D01*
X755601Y1217416D01*
X757890Y1217114D01*
X760179Y1217416D01*
X762313Y1218299D01*
X764145Y1219705D01*
X765551Y1221537D01*
X766434Y1223671D01*
X766736Y1225960D01*
X766434Y1228249D01*
X765551Y1230383D01*
X764145Y1232215D01*
X762313Y1233621D01*
X760179Y1234504D01*
X757890Y1234806D01*
D02*
G37*
G36*
X539597Y1224690D02*
X531160D01*
Y1216253D01*
X532446Y1216422D01*
X534827Y1217409D01*
X536872Y1218978D01*
X538442Y1221023D01*
X539428Y1223404D01*
X539597Y1224690D01*
D02*
G37*
G36*
X528620D02*
X520183D01*
X520352Y1223404D01*
X521339Y1221023D01*
X522908Y1218978D01*
X524953Y1217409D01*
X527334Y1216422D01*
X528620Y1216253D01*
Y1224690D01*
D02*
G37*
G36*
X368300Y1225243D02*
X366076Y1224951D01*
X364003Y1224092D01*
X362224Y1222727D01*
X360858Y1220947D01*
X359999Y1218874D01*
X359707Y1216650D01*
X359999Y1214426D01*
X360858Y1212353D01*
X362224Y1210574D01*
X364003Y1209208D01*
X366076Y1208349D01*
X368300Y1208057D01*
X370524Y1208349D01*
X372597Y1209208D01*
X374376Y1210574D01*
X375742Y1212353D01*
X376601Y1214426D01*
X376893Y1216650D01*
X376601Y1218874D01*
X375742Y1220947D01*
X374376Y1222727D01*
X372597Y1224092D01*
X370524Y1224951D01*
X368300Y1225243D01*
D02*
G37*
G36*
X1267460Y1185979D02*
X1266109Y1185802D01*
X1263667Y1184790D01*
X1261569Y1183181D01*
X1259960Y1181083D01*
X1258948Y1178641D01*
X1258771Y1177290D01*
X1267460D01*
Y1185979D01*
D02*
G37*
G36*
X985520Y1183958D02*
X983465Y1183687D01*
X981551Y1182894D01*
X979907Y1181633D01*
X978646Y1179989D01*
X977853Y1178074D01*
X977582Y1176020D01*
X977853Y1173966D01*
X978318Y1172841D01*
X973349Y1167871D01*
X972732Y1166949D01*
X972515Y1165860D01*
Y1141743D01*
X865923Y1035151D01*
X864750Y1035637D01*
Y1037590D01*
X855980D01*
Y1028820D01*
X857933D01*
X858419Y1027647D01*
X857367Y1026594D01*
X850350D01*
X849261Y1026378D01*
X848338Y1025761D01*
X821610Y999033D01*
X821480Y999133D01*
X818677Y1000294D01*
X815670Y1000689D01*
X812663Y1000294D01*
X809860Y999133D01*
X807454Y997286D01*
X805607Y994880D01*
X804446Y992077D01*
X804051Y989070D01*
X804446Y986063D01*
X805607Y983260D01*
X807454Y980854D01*
X809860Y979007D01*
X812663Y977847D01*
X815670Y977451D01*
X818677Y977847D01*
X821480Y979007D01*
X823886Y980854D01*
X825733Y983260D01*
X826893Y986063D01*
X827289Y989070D01*
X826893Y992077D01*
X825733Y994880D01*
X825633Y995010D01*
X844513Y1013890D01*
X845643Y1013224D01*
X845922Y1011105D01*
X846831Y1008911D01*
X848277Y1007027D01*
X850161Y1005581D01*
X852355Y1004672D01*
X854710Y1004362D01*
X857065Y1004672D01*
X859259Y1005581D01*
X861143Y1007027D01*
X862589Y1008911D01*
X863498Y1011105D01*
X863808Y1013460D01*
X863498Y1015815D01*
X862589Y1018009D01*
X861143Y1019893D01*
X860649Y1020272D01*
X860567Y1021577D01*
X860673Y1021855D01*
X977371Y1138553D01*
X977988Y1139476D01*
X978205Y1140564D01*
Y1164682D01*
X982341Y1168818D01*
X983465Y1168353D01*
X985520Y1168082D01*
X987574Y1168353D01*
X989489Y1169146D01*
X991133Y1170407D01*
X992394Y1172051D01*
X993187Y1173966D01*
X993458Y1176020D01*
X993187Y1178074D01*
X992394Y1179989D01*
X991133Y1181633D01*
X989489Y1182894D01*
X987574Y1183687D01*
X985520Y1183958D01*
D02*
G37*
G36*
X1267460Y1174750D02*
X1258771D01*
X1258948Y1173399D01*
X1259960Y1170957D01*
X1261569Y1168859D01*
X1263667Y1167250D01*
X1266109Y1166238D01*
X1267460Y1166061D01*
Y1174750D01*
D02*
G37*
G36*
X1015880Y1159390D02*
X1007110D01*
Y1150620D01*
X1015880D01*
Y1159390D01*
D02*
G37*
G36*
X1004570D02*
X995800D01*
Y1150620D01*
X1004570D01*
Y1159390D01*
D02*
G37*
G36*
X815670Y1178489D02*
X812663Y1178093D01*
X809860Y1176933D01*
X807454Y1175086D01*
X805607Y1172680D01*
X804446Y1169877D01*
X804051Y1166870D01*
X804446Y1163863D01*
X805607Y1161060D01*
X807454Y1158654D01*
X809860Y1156807D01*
X812663Y1155647D01*
X814971Y1155343D01*
X815106Y1155325D01*
Y1154044D01*
X814971Y1154026D01*
X812396Y1153687D01*
X809346Y1152424D01*
X806726Y1150414D01*
X804716Y1147794D01*
X803453Y1144744D01*
X803189Y1142740D01*
X815670D01*
X828151D01*
X827887Y1144744D01*
X826624Y1147794D01*
X824614Y1150414D01*
X821994Y1152424D01*
X818944Y1153687D01*
X816369Y1154026D01*
X816234Y1154044D01*
Y1155325D01*
X816369Y1155343D01*
X818677Y1155647D01*
X821480Y1156807D01*
X823886Y1158654D01*
X825733Y1161060D01*
X826893Y1163863D01*
X827289Y1166870D01*
X826893Y1169877D01*
X825733Y1172680D01*
X823886Y1175086D01*
X821480Y1176933D01*
X818677Y1178093D01*
X815670Y1178489D01*
D02*
G37*
G36*
X1268730Y1159718D02*
X1266375Y1159408D01*
X1264181Y1158499D01*
X1262297Y1157053D01*
X1260851Y1155169D01*
X1259942Y1152975D01*
X1259632Y1150620D01*
X1259942Y1148265D01*
X1260851Y1146071D01*
X1262297Y1144187D01*
X1264181Y1142741D01*
X1266375Y1141832D01*
X1268730Y1141522D01*
X1271085Y1141832D01*
X1273279Y1142741D01*
X1275163Y1144187D01*
X1276609Y1146071D01*
X1277518Y1148265D01*
X1277828Y1150620D01*
X1277518Y1152975D01*
X1276609Y1155169D01*
X1275163Y1157053D01*
X1273279Y1158499D01*
X1271085Y1159408D01*
X1268730Y1159718D01*
D02*
G37*
G36*
X1015880Y1148080D02*
X1007110D01*
Y1139310D01*
X1015880D01*
Y1148080D01*
D02*
G37*
G36*
X1004570D02*
X995800D01*
Y1139310D01*
X1004570D01*
Y1148080D01*
D02*
G37*
G36*
X1206500Y1144588D02*
X1204445Y1144317D01*
X1202531Y1143524D01*
X1200887Y1142263D01*
X1199626Y1140619D01*
X1199160Y1139495D01*
X1192530D01*
X1191441Y1139278D01*
X1190519Y1138661D01*
X1166389Y1114531D01*
X1165772Y1113609D01*
X1165555Y1112520D01*
Y1058900D01*
X1164431Y1058434D01*
X1162787Y1057173D01*
X1161526Y1055529D01*
X1160733Y1053615D01*
X1160462Y1051560D01*
X1160733Y1049505D01*
X1161526Y1047591D01*
X1162787Y1045947D01*
X1164431Y1044686D01*
X1166346Y1043893D01*
X1168400Y1043622D01*
X1170454Y1043893D01*
X1172369Y1044686D01*
X1174013Y1045947D01*
X1175274Y1047591D01*
X1176067Y1049505D01*
X1176338Y1051560D01*
X1176067Y1053615D01*
X1175274Y1055529D01*
X1174013Y1057173D01*
X1172369Y1058434D01*
X1171245Y1058900D01*
Y1111342D01*
X1193708Y1133805D01*
X1199160D01*
X1199626Y1132681D01*
X1200887Y1131037D01*
X1202531Y1129776D01*
X1204445Y1128983D01*
X1206500Y1128712D01*
X1208555Y1128983D01*
X1210469Y1129776D01*
X1212113Y1131037D01*
X1213374Y1132681D01*
X1214167Y1134595D01*
X1214438Y1136650D01*
X1214167Y1138705D01*
X1213374Y1140619D01*
X1212113Y1142263D01*
X1210469Y1143524D01*
X1208555Y1144317D01*
X1206500Y1144588D01*
D02*
G37*
G36*
X438300Y1145243D02*
X436076Y1144951D01*
X434003Y1144092D01*
X432224Y1142727D01*
X430858Y1140947D01*
X429999Y1138874D01*
X429707Y1136650D01*
X429999Y1134426D01*
X430858Y1132353D01*
X432224Y1130574D01*
X434003Y1129208D01*
X436076Y1128349D01*
X438300Y1128057D01*
X440524Y1128349D01*
X442597Y1129208D01*
X444376Y1130574D01*
X445742Y1132353D01*
X446601Y1134426D01*
X446893Y1136650D01*
X446601Y1138874D01*
X445742Y1140947D01*
X444376Y1142727D01*
X442597Y1144092D01*
X440524Y1144951D01*
X438300Y1145243D01*
D02*
G37*
G36*
X368300D02*
X366076Y1144951D01*
X364003Y1144092D01*
X362224Y1142727D01*
X360858Y1140947D01*
X359999Y1138874D01*
X359707Y1136650D01*
X359999Y1134426D01*
X360858Y1132353D01*
X362224Y1130574D01*
X364003Y1129208D01*
X366076Y1128349D01*
X368300Y1128057D01*
X370524Y1128349D01*
X372597Y1129208D01*
X374376Y1130574D01*
X375742Y1132353D01*
X376601Y1134426D01*
X376893Y1136650D01*
X376601Y1138874D01*
X375742Y1140947D01*
X374376Y1142727D01*
X372597Y1144092D01*
X370524Y1144951D01*
X368300Y1145243D01*
D02*
G37*
G36*
X1126620Y1144400D02*
X1108580D01*
Y1126360D01*
X1126620D01*
Y1144400D01*
D02*
G37*
G36*
X1211580Y1185215D02*
X1061224D01*
X1060136Y1184998D01*
X1059213Y1184381D01*
X1045739Y1170907D01*
X1045122Y1169984D01*
X1044905Y1168896D01*
Y1103350D01*
X1043781Y1102884D01*
X1042137Y1101623D01*
X1040876Y1099979D01*
X1040083Y1098064D01*
X1039812Y1096010D01*
X1040083Y1093956D01*
X1040876Y1092041D01*
X1042137Y1090397D01*
X1043781Y1089136D01*
X1045695Y1088343D01*
X1047750Y1088072D01*
X1049805Y1088343D01*
X1051719Y1089136D01*
X1053363Y1090397D01*
X1054624Y1092041D01*
X1055417Y1093956D01*
X1055688Y1096010D01*
X1055417Y1098064D01*
X1054624Y1099979D01*
X1053363Y1101623D01*
X1051719Y1102884D01*
X1050595Y1103350D01*
Y1167717D01*
X1056977Y1174100D01*
X1058150Y1173613D01*
Y1155350D01*
X1069297D01*
X1069380Y1154080D01*
X1068749Y1153997D01*
X1066396Y1153687D01*
X1063346Y1152424D01*
X1060726Y1150414D01*
X1058716Y1147794D01*
X1057453Y1144744D01*
X1057189Y1142740D01*
X1069670D01*
X1082151D01*
X1081887Y1144744D01*
X1080624Y1147794D01*
X1078614Y1150414D01*
X1075994Y1152424D01*
X1072944Y1153687D01*
X1070591Y1153997D01*
X1069960Y1154080D01*
X1070043Y1155350D01*
X1081190D01*
Y1178390D01*
X1081190D01*
X1081515Y1179525D01*
X1210402D01*
X1260648Y1129279D01*
X1259942Y1127575D01*
X1259632Y1125220D01*
X1259942Y1122865D01*
X1260851Y1120671D01*
X1262297Y1118787D01*
X1264181Y1117341D01*
X1266375Y1116432D01*
X1268730Y1116122D01*
X1271085Y1116432D01*
X1273279Y1117341D01*
X1275163Y1118787D01*
X1276609Y1120671D01*
X1277518Y1122865D01*
X1277828Y1125220D01*
X1277518Y1127575D01*
X1276609Y1129769D01*
X1275163Y1131653D01*
X1273279Y1133099D01*
X1271085Y1134008D01*
X1268730Y1134318D01*
X1266375Y1134008D01*
X1264671Y1133302D01*
X1213591Y1184381D01*
X1212669Y1184998D01*
X1211580Y1185215D01*
D02*
G37*
G36*
X1118870Y1119939D02*
Y1111250D01*
X1127559D01*
X1127382Y1112601D01*
X1126370Y1115043D01*
X1124761Y1117141D01*
X1122663Y1118750D01*
X1120221Y1119762D01*
X1118870Y1119939D01*
D02*
G37*
G36*
X1116330D02*
X1114979Y1119762D01*
X1112537Y1118750D01*
X1110439Y1117141D01*
X1108830Y1115043D01*
X1107818Y1112601D01*
X1107641Y1111250D01*
X1116330D01*
Y1119939D01*
D02*
G37*
G36*
X1082151Y1140200D02*
X1069670D01*
X1057189D01*
X1057453Y1138196D01*
X1058716Y1135146D01*
X1060726Y1132526D01*
X1063346Y1130516D01*
X1066396Y1129253D01*
X1068971Y1128914D01*
X1069106Y1128896D01*
Y1127615D01*
X1068971Y1127597D01*
X1066663Y1127293D01*
X1063860Y1126133D01*
X1061454Y1124286D01*
X1059607Y1121880D01*
X1058447Y1119077D01*
X1058051Y1116070D01*
X1058447Y1113063D01*
X1059607Y1110260D01*
X1061454Y1107854D01*
X1063860Y1106007D01*
X1066663Y1104847D01*
X1069670Y1104451D01*
X1072677Y1104847D01*
X1075480Y1106007D01*
X1077886Y1107854D01*
X1079733Y1110260D01*
X1080893Y1113063D01*
X1081289Y1116070D01*
X1080893Y1119077D01*
X1079733Y1121880D01*
X1077886Y1124286D01*
X1075480Y1126133D01*
X1072677Y1127293D01*
X1070369Y1127597D01*
X1070234Y1127615D01*
Y1128896D01*
X1070369Y1128914D01*
X1072944Y1129253D01*
X1075994Y1130516D01*
X1078614Y1132526D01*
X1080624Y1135146D01*
X1081887Y1138196D01*
X1082151Y1140200D01*
D02*
G37*
G36*
X828151D02*
X815670D01*
X803189D01*
X803453Y1138196D01*
X804716Y1135146D01*
X806726Y1132526D01*
X809346Y1130516D01*
X812396Y1129253D01*
X814971Y1128914D01*
X815106Y1128896D01*
Y1127615D01*
X814971Y1127597D01*
X812663Y1127293D01*
X809860Y1126133D01*
X807454Y1124286D01*
X805607Y1121880D01*
X804446Y1119077D01*
X804051Y1116070D01*
X804446Y1113063D01*
X805607Y1110260D01*
X807454Y1107854D01*
X809860Y1106007D01*
X812663Y1104847D01*
X815670Y1104451D01*
X818677Y1104847D01*
X821480Y1106007D01*
X823886Y1107854D01*
X825733Y1110260D01*
X826893Y1113063D01*
X827289Y1116070D01*
X826893Y1119077D01*
X825733Y1121880D01*
X823886Y1124286D01*
X821480Y1126133D01*
X818677Y1127293D01*
X816369Y1127597D01*
X816234Y1127615D01*
Y1128896D01*
X816369Y1128914D01*
X818944Y1129253D01*
X821994Y1130516D01*
X824614Y1132526D01*
X826624Y1135146D01*
X827887Y1138196D01*
X828151Y1140200D01*
D02*
G37*
G36*
X1127559Y1108710D02*
X1118870D01*
Y1100021D01*
X1120221Y1100198D01*
X1122663Y1101210D01*
X1124761Y1102819D01*
X1126370Y1104917D01*
X1127382Y1107359D01*
X1127559Y1108710D01*
D02*
G37*
G36*
X1116330D02*
X1107641D01*
X1107818Y1107359D01*
X1108830Y1104917D01*
X1110439Y1102819D01*
X1112537Y1101210D01*
X1114979Y1100198D01*
X1116330Y1100021D01*
Y1108710D01*
D02*
G37*
G36*
X1136650Y1173798D02*
X1134595Y1173527D01*
X1132681Y1172734D01*
X1131037Y1171473D01*
X1129776Y1169829D01*
X1128983Y1167915D01*
X1128712Y1165860D01*
X1128983Y1163805D01*
X1129776Y1161891D01*
X1131037Y1160247D01*
X1132681Y1158986D01*
X1133805Y1158520D01*
Y1092406D01*
X1128824Y1087425D01*
X1126185D01*
X1125479Y1089129D01*
X1124033Y1091013D01*
X1122149Y1092459D01*
X1119955Y1093368D01*
X1117600Y1093678D01*
X1115245Y1093368D01*
X1113051Y1092459D01*
X1111167Y1091013D01*
X1109721Y1089129D01*
X1108812Y1086935D01*
X1108502Y1084580D01*
X1108812Y1082225D01*
X1109721Y1080031D01*
X1111167Y1078147D01*
X1113051Y1076701D01*
X1115245Y1075792D01*
X1117600Y1075482D01*
X1119955Y1075792D01*
X1122149Y1076701D01*
X1124033Y1078147D01*
X1125479Y1080031D01*
X1126185Y1081735D01*
X1130003D01*
X1131091Y1081952D01*
X1132014Y1082569D01*
X1138661Y1089216D01*
X1139278Y1090139D01*
X1139495Y1091227D01*
Y1158520D01*
X1140619Y1158986D01*
X1142263Y1160247D01*
X1143524Y1161891D01*
X1144317Y1163805D01*
X1144588Y1165860D01*
X1144317Y1167915D01*
X1143524Y1169829D01*
X1142263Y1171473D01*
X1140619Y1172734D01*
X1138705Y1173527D01*
X1136650Y1173798D01*
D02*
G37*
G36*
X1069670Y1102289D02*
X1066663Y1101893D01*
X1063860Y1100733D01*
X1061454Y1098886D01*
X1059607Y1096480D01*
X1058447Y1093677D01*
X1058051Y1090670D01*
X1058447Y1087663D01*
X1059607Y1084860D01*
X1061454Y1082454D01*
X1063860Y1080607D01*
X1066663Y1079447D01*
X1069670Y1079051D01*
X1072677Y1079447D01*
X1075480Y1080607D01*
X1077886Y1082454D01*
X1079733Y1084860D01*
X1080893Y1087663D01*
X1081289Y1090670D01*
X1080893Y1093677D01*
X1079733Y1096480D01*
X1077886Y1098886D01*
X1075480Y1100733D01*
X1072677Y1101893D01*
X1069670Y1102289D01*
D02*
G37*
G36*
X815670D02*
X812663Y1101893D01*
X809860Y1100733D01*
X807454Y1098886D01*
X805607Y1096480D01*
X804446Y1093677D01*
X804051Y1090670D01*
X804446Y1087663D01*
X805607Y1084860D01*
X807454Y1082454D01*
X809860Y1080607D01*
X812663Y1079447D01*
X815670Y1079051D01*
X818677Y1079447D01*
X821480Y1080607D01*
X823886Y1082454D01*
X825733Y1084860D01*
X826893Y1087663D01*
X827289Y1090670D01*
X826893Y1093677D01*
X825733Y1096480D01*
X823886Y1098886D01*
X821480Y1100733D01*
X818677Y1101893D01*
X815670Y1102289D01*
D02*
G37*
G36*
Y1076889D02*
X812663Y1076494D01*
X809860Y1075333D01*
X807454Y1073486D01*
X805607Y1071080D01*
X804446Y1068277D01*
X804051Y1065270D01*
X804446Y1062263D01*
X805607Y1059460D01*
X807454Y1057054D01*
X809860Y1055207D01*
X812663Y1054047D01*
X815670Y1053651D01*
X818677Y1054047D01*
X821480Y1055207D01*
X823886Y1057054D01*
X825733Y1059460D01*
X826893Y1062263D01*
X827289Y1065270D01*
X826893Y1068277D01*
X825733Y1071080D01*
X823886Y1073486D01*
X821480Y1075333D01*
X818677Y1076494D01*
X815670Y1076889D01*
D02*
G37*
G36*
X1069670D02*
X1066663Y1076494D01*
X1063860Y1075333D01*
X1061454Y1073486D01*
X1059607Y1071080D01*
X1058447Y1068277D01*
X1058051Y1065270D01*
X1058447Y1062263D01*
X1059607Y1059460D01*
X1061454Y1057054D01*
X1063860Y1055207D01*
X1066663Y1054047D01*
X1069670Y1053651D01*
X1072677Y1054047D01*
X1072925Y1054149D01*
X1072999Y1054039D01*
X1075907Y1051130D01*
X1075187Y1050054D01*
X1072677Y1051094D01*
X1069670Y1051489D01*
X1066663Y1051094D01*
X1063860Y1049933D01*
X1061454Y1048086D01*
X1059607Y1045680D01*
X1058447Y1042877D01*
X1058051Y1039870D01*
X1058447Y1036863D01*
X1059607Y1034060D01*
X1061454Y1031654D01*
X1063860Y1029807D01*
X1066663Y1028647D01*
X1069670Y1028251D01*
X1072677Y1028647D01*
X1075480Y1029807D01*
X1075610Y1029907D01*
X1081369Y1024148D01*
X1082291Y1023532D01*
X1083380Y1023315D01*
X1133120D01*
X1133586Y1022191D01*
X1134847Y1020547D01*
X1136491Y1019286D01*
X1138406Y1018493D01*
X1140460Y1018222D01*
X1142514Y1018493D01*
X1144429Y1019286D01*
X1146073Y1020547D01*
X1147334Y1022191D01*
X1148127Y1024106D01*
X1148398Y1026160D01*
X1148127Y1028214D01*
X1147442Y1029869D01*
X1148519Y1030589D01*
X1168818Y1010289D01*
X1168353Y1009165D01*
X1168082Y1007110D01*
X1168353Y1005055D01*
X1169146Y1003141D01*
X1170407Y1001497D01*
X1172051Y1000236D01*
X1173966Y999443D01*
X1176020Y999172D01*
X1178074Y999443D01*
X1179989Y1000236D01*
X1181633Y1001497D01*
X1182894Y1003141D01*
X1183687Y1005055D01*
X1183958Y1007110D01*
X1183687Y1009165D01*
X1182894Y1011079D01*
X1181633Y1012723D01*
X1179989Y1013984D01*
X1178074Y1014777D01*
X1176020Y1015048D01*
X1173966Y1014777D01*
X1172841Y1014312D01*
X1138661Y1048491D01*
X1137739Y1049108D01*
X1136650Y1049325D01*
X1120696D01*
X1120443Y1050595D01*
X1122149Y1051301D01*
X1124033Y1052747D01*
X1125479Y1054631D01*
X1126388Y1056825D01*
X1126698Y1059180D01*
X1126388Y1061535D01*
X1125479Y1063729D01*
X1124033Y1065613D01*
X1122149Y1067059D01*
X1119955Y1067968D01*
X1117600Y1068278D01*
X1115245Y1067968D01*
X1113051Y1067059D01*
X1111167Y1065613D01*
X1109721Y1063729D01*
X1108812Y1061535D01*
X1108502Y1059180D01*
X1108812Y1056825D01*
X1109721Y1054631D01*
X1111167Y1052747D01*
X1113051Y1051301D01*
X1114757Y1050595D01*
X1114504Y1049325D01*
X1085758D01*
X1077948Y1057135D01*
X1079733Y1059460D01*
X1080893Y1062263D01*
X1081289Y1065270D01*
X1080893Y1068277D01*
X1079733Y1071080D01*
X1077886Y1073486D01*
X1075480Y1075333D01*
X1072677Y1076494D01*
X1069670Y1076889D01*
D02*
G37*
G36*
X864750Y1048900D02*
X855980D01*
Y1040130D01*
X864750D01*
Y1048900D01*
D02*
G37*
G36*
X453390Y1054135D02*
X451427Y1053876D01*
X449598Y1053119D01*
X448027Y1051913D01*
X446821Y1050342D01*
X446064Y1048513D01*
X445805Y1046550D01*
X446064Y1044587D01*
X446821Y1042758D01*
X448027Y1041187D01*
X449598Y1039981D01*
X451427Y1039224D01*
X453390Y1038965D01*
X455353Y1039224D01*
X457182Y1039981D01*
X458753Y1041187D01*
X459959Y1042758D01*
X460716Y1044587D01*
X460975Y1046550D01*
X460716Y1048513D01*
X459959Y1050342D01*
X458753Y1051913D01*
X457182Y1053119D01*
X455353Y1053876D01*
X453390Y1054135D01*
D02*
G37*
G36*
X853440Y1037590D02*
X844670D01*
Y1028820D01*
X853440D01*
Y1037590D01*
D02*
G37*
G36*
X1027430Y1036638D02*
X1025376Y1036367D01*
X1023461Y1035574D01*
X1021817Y1034313D01*
X1020556Y1032669D01*
X1019763Y1030754D01*
X1019492Y1028700D01*
X1019763Y1026646D01*
X1020228Y1025521D01*
X932272Y937565D01*
X888720D01*
X888254Y938689D01*
X886993Y940333D01*
X885349Y941594D01*
X883435Y942387D01*
X881380Y942658D01*
X879325Y942387D01*
X877411Y941594D01*
X875767Y940333D01*
X874506Y938689D01*
X873713Y936775D01*
X873442Y934720D01*
X873713Y932665D01*
X874506Y930751D01*
X875767Y929107D01*
X877411Y927846D01*
X879325Y927053D01*
X881380Y926782D01*
X883435Y927053D01*
X885349Y927846D01*
X886993Y929107D01*
X888254Y930751D01*
X888720Y931875D01*
X933450D01*
X934539Y932092D01*
X935461Y932709D01*
X1024251Y1021498D01*
X1025376Y1021033D01*
X1027430Y1020762D01*
X1029484Y1021033D01*
X1031399Y1021826D01*
X1033043Y1023087D01*
X1034304Y1024731D01*
X1035097Y1026646D01*
X1035368Y1028700D01*
X1035097Y1030754D01*
X1034304Y1032669D01*
X1033043Y1034313D01*
X1031399Y1035574D01*
X1029484Y1036367D01*
X1027430Y1036638D01*
D02*
G37*
G36*
X1069670Y1026089D02*
X1066663Y1025694D01*
X1063860Y1024533D01*
X1061454Y1022686D01*
X1059607Y1020280D01*
X1058447Y1017477D01*
X1058051Y1014470D01*
X1058447Y1011463D01*
X1059607Y1008660D01*
X1061454Y1006254D01*
X1063860Y1004407D01*
X1066663Y1003247D01*
X1069670Y1002851D01*
X1072677Y1003247D01*
X1075480Y1004407D01*
X1075610Y1004507D01*
X1076289Y1003829D01*
X1077211Y1003212D01*
X1078300Y1002995D01*
X1134390D01*
X1134856Y1001871D01*
X1136117Y1000227D01*
X1137761Y998966D01*
X1139676Y998173D01*
X1141730Y997902D01*
X1143784Y998173D01*
X1145699Y998966D01*
X1147343Y1000227D01*
X1148604Y1001871D01*
X1149397Y1003785D01*
X1149668Y1005840D01*
X1149397Y1007895D01*
X1148604Y1009809D01*
X1147343Y1011453D01*
X1145699Y1012714D01*
X1143784Y1013507D01*
X1141730Y1013778D01*
X1139676Y1013507D01*
X1137761Y1012714D01*
X1136117Y1011453D01*
X1134856Y1009809D01*
X1134390Y1008685D01*
X1080886D01*
X1080180Y1009741D01*
X1080893Y1011463D01*
X1081289Y1014470D01*
X1080893Y1017477D01*
X1079733Y1020280D01*
X1077886Y1022686D01*
X1075480Y1024533D01*
X1072677Y1025694D01*
X1069670Y1026089D01*
D02*
G37*
G36*
X364490Y1015008D02*
X362135Y1014698D01*
X359941Y1013789D01*
X358057Y1012343D01*
X356611Y1010459D01*
X355702Y1008265D01*
X355392Y1005910D01*
X355702Y1003555D01*
X356611Y1001361D01*
X358057Y999477D01*
X359941Y998031D01*
X362135Y997122D01*
X364490Y996812D01*
X366845Y997122D01*
X369039Y998031D01*
X370923Y999477D01*
X372369Y1001361D01*
X373278Y1003555D01*
X373588Y1005910D01*
X373278Y1008265D01*
X372369Y1010459D01*
X370923Y1012343D01*
X369039Y1013789D01*
X366845Y1014698D01*
X364490Y1015008D01*
D02*
G37*
G36*
X1225550Y1010211D02*
X1223104Y1009889D01*
X1220825Y1008945D01*
X1218867Y1007443D01*
X1217365Y1005485D01*
X1216421Y1003206D01*
X1216099Y1000760D01*
X1216421Y998314D01*
X1217365Y996035D01*
X1218867Y994077D01*
X1220825Y992575D01*
X1223104Y991631D01*
X1225550Y991309D01*
X1227996Y991631D01*
X1230275Y992575D01*
X1232233Y994077D01*
X1233735Y996035D01*
X1234679Y998314D01*
X1235001Y1000760D01*
X1234679Y1003206D01*
X1233735Y1005485D01*
X1232233Y1007443D01*
X1230275Y1008945D01*
X1227996Y1009889D01*
X1225550Y1010211D01*
D02*
G37*
G36*
X854710Y997158D02*
X852355Y996848D01*
X850161Y995939D01*
X848277Y994493D01*
X846831Y992609D01*
X845922Y990415D01*
X845612Y988060D01*
X845922Y985705D01*
X846831Y983511D01*
X848277Y981627D01*
X850161Y980181D01*
X852355Y979272D01*
X854710Y978962D01*
X857065Y979272D01*
X859259Y980181D01*
X861143Y981627D01*
X862589Y983511D01*
X863498Y985705D01*
X863808Y988060D01*
X863498Y990415D01*
X862589Y992609D01*
X861143Y994493D01*
X859259Y995939D01*
X857065Y996848D01*
X854710Y997158D01*
D02*
G37*
G36*
X1069670Y1000689D02*
X1066663Y1000294D01*
X1063860Y999133D01*
X1061454Y997286D01*
X1059607Y994880D01*
X1058447Y992077D01*
X1058051Y989070D01*
X1058447Y986063D01*
X1059607Y983260D01*
X1061454Y980854D01*
X1063860Y979007D01*
X1066663Y977847D01*
X1069670Y977451D01*
X1072677Y977847D01*
X1075480Y979007D01*
X1077886Y980854D01*
X1079733Y983260D01*
X1080893Y986063D01*
X1081289Y989070D01*
X1080893Y992077D01*
X1079733Y994880D01*
X1077886Y997286D01*
X1075480Y999133D01*
X1072677Y1000294D01*
X1069670Y1000689D01*
D02*
G37*
G36*
X1116460Y994540D02*
X1098420D01*
Y976500D01*
X1116460D01*
Y994540D01*
D02*
G37*
G36*
X1267460Y982779D02*
X1266109Y982602D01*
X1263667Y981590D01*
X1261569Y979981D01*
X1259960Y977883D01*
X1258948Y975441D01*
X1258771Y974090D01*
X1267460D01*
Y982779D01*
D02*
G37*
G36*
X899160Y985838D02*
X897105Y985567D01*
X895191Y984774D01*
X893547Y983513D01*
X892286Y981869D01*
X891493Y979955D01*
X891222Y977900D01*
X891493Y975845D01*
X891958Y974721D01*
X851429Y934191D01*
X850812Y933269D01*
X850595Y932180D01*
Y914474D01*
X848715Y913695D01*
X846757Y912193D01*
X845255Y910235D01*
X844311Y907956D01*
X843989Y905510D01*
X844311Y903064D01*
X845255Y900785D01*
X846757Y898827D01*
X848715Y897325D01*
X850994Y896381D01*
X853440Y896059D01*
X855886Y896381D01*
X858165Y897325D01*
X860123Y898827D01*
X861625Y900785D01*
X862569Y903064D01*
X862891Y905510D01*
X862569Y907956D01*
X861625Y910235D01*
X860123Y912193D01*
X858165Y913695D01*
X856285Y914474D01*
Y931002D01*
X895981Y970698D01*
X897105Y970233D01*
X899160Y969962D01*
X901215Y970233D01*
X903129Y971026D01*
X904773Y972287D01*
X906034Y973931D01*
X906827Y975845D01*
X907098Y977900D01*
X906827Y979955D01*
X906034Y981869D01*
X904773Y983513D01*
X903129Y984774D01*
X901215Y985567D01*
X899160Y985838D01*
D02*
G37*
G36*
X1267460Y971550D02*
X1258771D01*
X1258948Y970199D01*
X1259960Y967757D01*
X1261569Y965659D01*
X1263667Y964050D01*
X1266109Y963038D01*
X1267460Y962861D01*
Y971550D01*
D02*
G37*
G36*
X1108710Y970079D02*
Y961390D01*
X1117399D01*
X1117222Y962741D01*
X1116210Y965183D01*
X1114601Y967281D01*
X1112503Y968890D01*
X1110061Y969902D01*
X1108710Y970079D01*
D02*
G37*
G36*
X1106170D02*
X1104819Y969902D01*
X1102377Y968890D01*
X1100279Y967281D01*
X1098670Y965183D01*
X1097658Y962741D01*
X1097481Y961390D01*
X1106170D01*
Y970079D01*
D02*
G37*
G36*
X1069670Y975289D02*
X1066663Y974893D01*
X1063860Y973733D01*
X1061454Y971886D01*
X1059607Y969480D01*
X1058447Y966677D01*
X1058051Y963670D01*
X1058447Y960663D01*
X1059607Y957860D01*
X1061454Y955454D01*
X1063860Y953607D01*
X1066663Y952447D01*
X1069670Y952051D01*
X1072677Y952447D01*
X1075480Y953607D01*
X1077886Y955454D01*
X1079733Y957860D01*
X1080893Y960663D01*
X1081289Y963670D01*
X1080893Y966677D01*
X1079733Y969480D01*
X1077886Y971886D01*
X1075480Y973733D01*
X1072677Y974893D01*
X1069670Y975289D01*
D02*
G37*
G36*
X815670D02*
X812663Y974893D01*
X809860Y973733D01*
X807454Y971886D01*
X805607Y969480D01*
X804446Y966677D01*
X804051Y963670D01*
X804446Y960663D01*
X805607Y957860D01*
X807454Y955454D01*
X809860Y953607D01*
X812663Y952447D01*
X815670Y952051D01*
X818677Y952447D01*
X821480Y953607D01*
X823886Y955454D01*
X825733Y957860D01*
X826893Y960663D01*
X827289Y963670D01*
X826893Y966677D01*
X825733Y969480D01*
X823886Y971886D01*
X821480Y973733D01*
X818677Y974893D01*
X815670Y975289D01*
D02*
G37*
G36*
X1117399Y958850D02*
X1108710D01*
Y950161D01*
X1110061Y950338D01*
X1112503Y951350D01*
X1114601Y952959D01*
X1116210Y955057D01*
X1117222Y957499D01*
X1117399Y958850D01*
D02*
G37*
G36*
X1106170D02*
X1097481D01*
X1097658Y957499D01*
X1098670Y955057D01*
X1100279Y952959D01*
X1102377Y951350D01*
X1104819Y950338D01*
X1106170Y950161D01*
Y958850D01*
D02*
G37*
G36*
X1268730Y956518D02*
X1266375Y956208D01*
X1264181Y955299D01*
X1262297Y953853D01*
X1260851Y951969D01*
X1259942Y949775D01*
X1259632Y947420D01*
X1259942Y945065D01*
X1260851Y942871D01*
X1262297Y940987D01*
X1264181Y939541D01*
X1266375Y938632D01*
X1268730Y938322D01*
X1271085Y938632D01*
X1273279Y939541D01*
X1275163Y940987D01*
X1276609Y942871D01*
X1277518Y945065D01*
X1277828Y947420D01*
X1277518Y949775D01*
X1276609Y951969D01*
X1275163Y953853D01*
X1273279Y955299D01*
X1271085Y956208D01*
X1268730Y956518D01*
D02*
G37*
G36*
X1069670Y949889D02*
X1066663Y949493D01*
X1063860Y948333D01*
X1061454Y946486D01*
X1059607Y944080D01*
X1058447Y941277D01*
X1058051Y938270D01*
X1058447Y935263D01*
X1059607Y932460D01*
X1061454Y930054D01*
X1063860Y928207D01*
X1066663Y927047D01*
X1069670Y926651D01*
X1072677Y927047D01*
X1075480Y928207D01*
X1077886Y930054D01*
X1079733Y932460D01*
X1080893Y935263D01*
X1081289Y938270D01*
X1080893Y941277D01*
X1079733Y944080D01*
X1077886Y946486D01*
X1075480Y948333D01*
X1072677Y949493D01*
X1069670Y949889D01*
D02*
G37*
G36*
X815670D02*
X812663Y949493D01*
X809860Y948333D01*
X807454Y946486D01*
X805607Y944080D01*
X804446Y941277D01*
X804051Y938270D01*
X804446Y935263D01*
X805607Y932460D01*
X807454Y930054D01*
X809860Y928207D01*
X812663Y927047D01*
X815670Y926651D01*
X818677Y927047D01*
X821480Y928207D01*
X823886Y930054D01*
X825733Y932460D01*
X826893Y935263D01*
X827289Y938270D01*
X826893Y941277D01*
X825733Y944080D01*
X823886Y946486D01*
X821480Y948333D01*
X818677Y949493D01*
X815670Y949889D01*
D02*
G37*
G36*
X1107440Y943818D02*
X1105085Y943508D01*
X1102891Y942599D01*
X1101007Y941153D01*
X1099561Y939269D01*
X1098652Y937075D01*
X1098342Y934720D01*
X1098652Y932365D01*
X1099561Y930171D01*
X1101007Y928287D01*
X1102891Y926841D01*
X1105085Y925932D01*
X1107440Y925622D01*
X1109795Y925932D01*
X1111989Y926841D01*
X1113873Y928287D01*
X1115319Y930171D01*
X1116228Y932365D01*
X1116538Y934720D01*
X1116228Y937075D01*
X1115319Y939269D01*
X1113873Y941153D01*
X1111989Y942599D01*
X1109795Y943508D01*
X1107440Y943818D01*
D02*
G37*
G36*
X373510Y939930D02*
X355470D01*
Y921890D01*
X373510D01*
Y939930D01*
D02*
G37*
G36*
X1130300Y960438D02*
X1128245Y960167D01*
X1126331Y959374D01*
X1124687Y958113D01*
X1123426Y956469D01*
X1122633Y954555D01*
X1122362Y952500D01*
X1122633Y950445D01*
X1123426Y948531D01*
X1124687Y946887D01*
X1126331Y945626D01*
X1127455Y945160D01*
Y933358D01*
X1111499Y917402D01*
X1109795Y918108D01*
X1107440Y918418D01*
X1105085Y918108D01*
X1102891Y917199D01*
X1101007Y915753D01*
X1099561Y913869D01*
X1098652Y911675D01*
X1098342Y909320D01*
X1098652Y906965D01*
X1099561Y904771D01*
X1101007Y902887D01*
X1102891Y901441D01*
X1105085Y900532D01*
X1107440Y900222D01*
X1109795Y900532D01*
X1111989Y901441D01*
X1113873Y902887D01*
X1115319Y904771D01*
X1116228Y906965D01*
X1116538Y909320D01*
X1116228Y911675D01*
X1115522Y913379D01*
X1132311Y930169D01*
X1132928Y931091D01*
X1133145Y932180D01*
Y945160D01*
X1134269Y945626D01*
X1135913Y946887D01*
X1137174Y948531D01*
X1137967Y950445D01*
X1138238Y952500D01*
X1137967Y954555D01*
X1137174Y956469D01*
X1135913Y958113D01*
X1134269Y959374D01*
X1132355Y960167D01*
X1130300Y960438D01*
D02*
G37*
G36*
X1268730Y931118D02*
X1266375Y930808D01*
X1264181Y929899D01*
X1262297Y928453D01*
X1260851Y926569D01*
X1259942Y924375D01*
X1259632Y922020D01*
X1259942Y919665D01*
X1260851Y917471D01*
X1262297Y915587D01*
X1264181Y914141D01*
X1266375Y913232D01*
X1268730Y912922D01*
X1271085Y913232D01*
X1273279Y914141D01*
X1275163Y915587D01*
X1276609Y917471D01*
X1277518Y919665D01*
X1277828Y922020D01*
X1277518Y924375D01*
X1276609Y926569D01*
X1275163Y928453D01*
X1273279Y929899D01*
X1271085Y930808D01*
X1268730Y931118D01*
D02*
G37*
G36*
X927100Y914553D02*
Y905510D01*
X936143D01*
X935953Y906952D01*
X934906Y909480D01*
X933240Y911650D01*
X931070Y913316D01*
X928542Y914363D01*
X927100Y914553D01*
D02*
G37*
G36*
X924560D02*
X923118Y914363D01*
X920590Y913316D01*
X918420Y911650D01*
X916754Y909480D01*
X915707Y906952D01*
X915518Y905510D01*
X924560D01*
Y914553D01*
D02*
G37*
G36*
X1069670Y924489D02*
X1066663Y924093D01*
X1063860Y922933D01*
X1061454Y921086D01*
X1059607Y918680D01*
X1058447Y915877D01*
X1058051Y912870D01*
X1058447Y909863D01*
X1059607Y907060D01*
X1061454Y904654D01*
X1063860Y902807D01*
X1066663Y901647D01*
X1069670Y901251D01*
X1072677Y901647D01*
X1075480Y902807D01*
X1077886Y904654D01*
X1079733Y907060D01*
X1080893Y909863D01*
X1081289Y912870D01*
X1080893Y915877D01*
X1079733Y918680D01*
X1077886Y921086D01*
X1075480Y922933D01*
X1072677Y924093D01*
X1069670Y924489D01*
D02*
G37*
G36*
X815670D02*
X812663Y924093D01*
X809860Y922933D01*
X807454Y921086D01*
X805607Y918680D01*
X804446Y915877D01*
X804051Y912870D01*
X804446Y909863D01*
X805607Y907060D01*
X807454Y904654D01*
X809860Y902807D01*
X812663Y901647D01*
X815670Y901251D01*
X818677Y901647D01*
X821480Y902807D01*
X823886Y904654D01*
X825733Y907060D01*
X826893Y909863D01*
X827289Y912870D01*
X826893Y915877D01*
X825733Y918680D01*
X823886Y921086D01*
X821480Y922933D01*
X818677Y924093D01*
X815670Y924489D01*
D02*
G37*
G36*
X889000Y913691D02*
X886554Y913369D01*
X884275Y912425D01*
X882317Y910923D01*
X880815Y908965D01*
X879871Y906686D01*
X879549Y904240D01*
X879871Y901794D01*
X880815Y899515D01*
X882317Y897557D01*
X884275Y896055D01*
X886554Y895111D01*
X889000Y894789D01*
X891446Y895111D01*
X893725Y896055D01*
X895683Y897557D01*
X897185Y899515D01*
X898129Y901794D01*
X898451Y904240D01*
X898129Y906686D01*
X897185Y908965D01*
X895683Y910923D01*
X893725Y912425D01*
X891446Y913369D01*
X889000Y913691D01*
D02*
G37*
G36*
X936143Y902970D02*
X927100D01*
Y893928D01*
X928542Y894117D01*
X931070Y895164D01*
X933240Y896830D01*
X934906Y899000D01*
X935953Y901528D01*
X936143Y902970D01*
D02*
G37*
G36*
X924560D02*
X915518D01*
X915707Y901528D01*
X916754Y899000D01*
X918420Y896830D01*
X920590Y895164D01*
X923118Y894117D01*
X924560Y893928D01*
Y902970D01*
D02*
G37*
G36*
X453390Y904135D02*
X451427Y903876D01*
X449598Y903119D01*
X448027Y901913D01*
X446821Y900342D01*
X446064Y898513D01*
X445805Y896550D01*
X446064Y894587D01*
X446821Y892758D01*
X448027Y891187D01*
X449598Y889981D01*
X451427Y889224D01*
X453390Y888965D01*
X455353Y889224D01*
X457182Y889981D01*
X458753Y891187D01*
X459959Y892758D01*
X460716Y894587D01*
X460975Y896550D01*
X460716Y898513D01*
X459959Y900342D01*
X458753Y901913D01*
X457182Y903119D01*
X455353Y903876D01*
X453390Y904135D01*
D02*
G37*
G36*
X1005840Y1107648D02*
X1003485Y1107338D01*
X1001291Y1106429D01*
X999407Y1104983D01*
X997961Y1103099D01*
X997052Y1100905D01*
X996742Y1098550D01*
X997052Y1096195D01*
X997961Y1094001D01*
X999407Y1092117D01*
X1001291Y1090671D01*
X1003485Y1089762D01*
X1005840Y1089452D01*
X1008195Y1089762D01*
X1010389Y1090671D01*
X1012273Y1092117D01*
X1013719Y1094001D01*
X1014425Y1095705D01*
X1023712D01*
X1047445Y1071972D01*
Y906850D01*
X1047662Y905761D01*
X1048279Y904839D01*
X1059707Y893410D01*
X1059607Y893280D01*
X1058447Y890477D01*
X1058051Y887470D01*
X1058447Y884463D01*
X1059607Y881660D01*
X1061454Y879254D01*
X1063860Y877407D01*
X1066663Y876247D01*
X1069670Y875851D01*
X1072677Y876247D01*
X1075480Y877407D01*
X1077886Y879254D01*
X1079733Y881660D01*
X1080893Y884463D01*
X1081289Y887470D01*
X1080893Y890477D01*
X1079733Y893280D01*
X1077886Y895686D01*
X1075480Y897533D01*
X1072677Y898693D01*
X1069670Y899089D01*
X1066663Y898693D01*
X1063860Y897533D01*
X1063730Y897433D01*
X1053135Y908028D01*
Y1073150D01*
X1052918Y1074239D01*
X1052301Y1075161D01*
X1026901Y1100561D01*
X1025979Y1101178D01*
X1024890Y1101395D01*
X1014425D01*
X1013719Y1103099D01*
X1012273Y1104983D01*
X1010389Y1106429D01*
X1008195Y1107338D01*
X1005840Y1107648D01*
D02*
G37*
G36*
X815670Y899089D02*
X812663Y898693D01*
X809860Y897533D01*
X807454Y895686D01*
X805607Y893280D01*
X804446Y890477D01*
X804051Y887470D01*
X804446Y884463D01*
X805607Y881660D01*
X807454Y879254D01*
X809860Y877407D01*
X812663Y876247D01*
X815670Y875851D01*
X818677Y876247D01*
X821480Y877407D01*
X823886Y879254D01*
X825733Y881660D01*
X826893Y884463D01*
X827289Y887470D01*
X826893Y890477D01*
X825733Y893280D01*
X823886Y895686D01*
X821480Y897533D01*
X818677Y898693D01*
X815670Y899089D01*
D02*
G37*
G36*
X1217930Y887021D02*
X1215484Y886699D01*
X1213205Y885755D01*
X1211247Y884253D01*
X1209745Y882295D01*
X1208801Y880016D01*
X1208479Y877570D01*
X1208801Y875124D01*
X1209745Y872845D01*
X1211247Y870887D01*
X1213205Y869385D01*
X1215484Y868441D01*
X1217930Y868119D01*
X1220376Y868441D01*
X1222655Y869385D01*
X1224613Y870887D01*
X1226115Y872845D01*
X1227059Y875124D01*
X1227381Y877570D01*
X1227059Y880016D01*
X1226115Y882295D01*
X1224613Y884253D01*
X1222655Y885755D01*
X1220376Y886699D01*
X1217930Y887021D01*
D02*
G37*
G36*
X1005840Y1082248D02*
X1003485Y1081938D01*
X1001291Y1081029D01*
X999407Y1079583D01*
X997961Y1077699D01*
X997052Y1075505D01*
X996742Y1073150D01*
X997052Y1070795D01*
X997961Y1068601D01*
X999407Y1066717D01*
X1001291Y1065271D01*
X1003485Y1064362D01*
X1005840Y1064052D01*
X1008195Y1064362D01*
X1010389Y1065271D01*
X1012273Y1066717D01*
X1013719Y1068601D01*
X1014425Y1070305D01*
X1024982D01*
X1039825Y1055462D01*
Y889070D01*
X1040042Y887981D01*
X1040659Y887059D01*
X1059707Y868010D01*
X1059607Y867880D01*
X1058447Y865077D01*
X1058051Y862070D01*
X1058447Y859063D01*
X1059607Y856260D01*
X1061454Y853854D01*
X1063860Y852007D01*
X1066663Y850847D01*
X1069670Y850451D01*
X1072677Y850847D01*
X1075480Y852007D01*
X1077886Y853854D01*
X1079733Y856260D01*
X1080893Y859063D01*
X1081289Y862070D01*
X1080893Y865077D01*
X1079733Y867880D01*
X1077886Y870286D01*
X1075480Y872133D01*
X1072677Y873294D01*
X1069670Y873689D01*
X1066663Y873294D01*
X1063860Y872133D01*
X1063730Y872033D01*
X1045515Y890248D01*
Y1056640D01*
X1045298Y1057729D01*
X1044681Y1058651D01*
X1028171Y1075161D01*
X1027249Y1075778D01*
X1026160Y1075995D01*
X1014425D01*
X1013719Y1077699D01*
X1012273Y1079583D01*
X1010389Y1081029D01*
X1008195Y1081938D01*
X1005840Y1082248D01*
D02*
G37*
G36*
X815670Y873689D02*
X812663Y873294D01*
X809860Y872133D01*
X807454Y870286D01*
X805607Y867880D01*
X804446Y865077D01*
X804051Y862070D01*
X804446Y859063D01*
X805607Y856260D01*
X807454Y853854D01*
X809860Y852007D01*
X812663Y850847D01*
X815670Y850451D01*
X818677Y850847D01*
X821480Y852007D01*
X823886Y853854D01*
X825733Y856260D01*
X826893Y859063D01*
X827289Y862070D01*
X826893Y865077D01*
X825733Y867880D01*
X823886Y870286D01*
X821480Y872133D01*
X818677Y873294D01*
X815670Y873689D01*
D02*
G37*
G36*
X989175Y852685D02*
X980440D01*
Y843950D01*
X989175D01*
Y852685D01*
D02*
G37*
G36*
X977900D02*
X969165D01*
Y843950D01*
X977900D01*
Y852685D01*
D02*
G37*
G36*
X989175Y841410D02*
X980440D01*
Y832675D01*
X989175D01*
Y841410D01*
D02*
G37*
G36*
X977900D02*
X969165D01*
Y832675D01*
X977900D01*
Y841410D01*
D02*
G37*
G36*
X1069670Y848289D02*
X1066663Y847894D01*
X1063860Y846733D01*
X1061454Y844886D01*
X1059607Y842480D01*
X1058447Y839677D01*
X1058051Y836670D01*
X1058447Y833663D01*
X1059607Y830860D01*
X1061454Y828454D01*
X1063860Y826607D01*
X1066663Y825447D01*
X1069670Y825051D01*
X1072677Y825447D01*
X1075480Y826607D01*
X1077886Y828454D01*
X1079733Y830860D01*
X1080893Y833663D01*
X1081289Y836670D01*
X1080893Y839677D01*
X1079733Y842480D01*
X1077886Y844886D01*
X1075480Y846733D01*
X1072677Y847894D01*
X1069670Y848289D01*
D02*
G37*
G36*
X815670D02*
X812663Y847894D01*
X809860Y846733D01*
X807454Y844886D01*
X805607Y842480D01*
X804446Y839677D01*
X804051Y836670D01*
X804446Y833663D01*
X805607Y830860D01*
X807454Y828454D01*
X809860Y826607D01*
X812663Y825447D01*
X815670Y825051D01*
X818677Y825447D01*
X821480Y826607D01*
X823886Y828454D01*
X825733Y830860D01*
X826893Y833663D01*
X827289Y836670D01*
X826893Y839677D01*
X825733Y842480D01*
X823886Y844886D01*
X821480Y846733D01*
X818677Y847894D01*
X815670Y848289D01*
D02*
G37*
G36*
X1035180Y873890D02*
X1017140D01*
Y855850D01*
X1035180D01*
Y860328D01*
X1036353Y860814D01*
X1043635Y853532D01*
Y814070D01*
X1043852Y812981D01*
X1044469Y812059D01*
X1060059Y796469D01*
X1060981Y795852D01*
X1062070Y795636D01*
X1094999D01*
X1096088Y795852D01*
X1097011Y796469D01*
X1114948Y814406D01*
X1116151Y813812D01*
X1116017Y812800D01*
X1116288Y810747D01*
X1117080Y808834D01*
X1118341Y807191D01*
X1119984Y805930D01*
X1121897Y805137D01*
X1123950Y804867D01*
X1126003Y805137D01*
X1127916Y805930D01*
X1129559Y807191D01*
X1130820Y808834D01*
X1131612Y810747D01*
X1131883Y812800D01*
X1131612Y814853D01*
X1130820Y816766D01*
X1129559Y818409D01*
X1127916Y819670D01*
X1126003Y820462D01*
X1123950Y820733D01*
X1122938Y820600D01*
X1122345Y821802D01*
X1125962Y825419D01*
X1126578Y826342D01*
X1126795Y827431D01*
Y830865D01*
X1127916Y831330D01*
X1129559Y832591D01*
X1130820Y834234D01*
X1131612Y836147D01*
X1131883Y838200D01*
X1131612Y840253D01*
X1130820Y842166D01*
X1129559Y843809D01*
X1127916Y845070D01*
X1126003Y845863D01*
X1123950Y846133D01*
X1121897Y845863D01*
X1119984Y845070D01*
X1118341Y843809D01*
X1117080Y842166D01*
X1116288Y840253D01*
X1116017Y838200D01*
X1116288Y836147D01*
X1117080Y834234D01*
X1118341Y832591D01*
X1119984Y831330D01*
X1121105Y830865D01*
Y828609D01*
X1093821Y801325D01*
X1077608D01*
X1077200Y802527D01*
X1077886Y803054D01*
X1079733Y805460D01*
X1080893Y808263D01*
X1081289Y811270D01*
X1080893Y814277D01*
X1079733Y817080D01*
X1077886Y819486D01*
X1075480Y821333D01*
X1072677Y822494D01*
X1069670Y822889D01*
X1066663Y822494D01*
X1063860Y821333D01*
X1061454Y819486D01*
X1059607Y817080D01*
X1058447Y814277D01*
X1058051Y811270D01*
X1058447Y808263D01*
X1058687Y807682D01*
X1057610Y806962D01*
X1049325Y815248D01*
Y854710D01*
X1049108Y855799D01*
X1048491Y856721D01*
X1038331Y866881D01*
X1037409Y867498D01*
X1036320Y867715D01*
X1035180D01*
Y873890D01*
D02*
G37*
G36*
X815670Y822889D02*
X812663Y822494D01*
X809860Y821333D01*
X807454Y819486D01*
X805607Y817080D01*
X804446Y814277D01*
X804051Y811270D01*
X804446Y808263D01*
X805607Y805460D01*
X807454Y803054D01*
X809860Y801207D01*
X812663Y800047D01*
X815670Y799651D01*
X818677Y800047D01*
X821480Y801207D01*
X823886Y803054D01*
X825733Y805460D01*
X826893Y808263D01*
X827289Y811270D01*
X826893Y814277D01*
X825733Y817080D01*
X823886Y819486D01*
X821480Y821333D01*
X818677Y822494D01*
X815670Y822889D01*
D02*
G37*
G36*
X438300Y1225243D02*
X436076Y1224951D01*
X434003Y1224092D01*
X432224Y1222727D01*
X430858Y1220947D01*
X429999Y1218874D01*
X429707Y1216650D01*
X429999Y1214426D01*
X430858Y1212353D01*
X432224Y1210574D01*
X434003Y1209208D01*
X436076Y1208349D01*
X438300Y1208057D01*
X440524Y1208349D01*
X442597Y1209208D01*
X444376Y1210574D01*
X445742Y1212353D01*
X446344Y1213805D01*
X466192D01*
X602045Y1077952D01*
Y809730D01*
X596120D01*
Y792190D01*
X613660D01*
Y809730D01*
X607735D01*
Y1079130D01*
X607518Y1080219D01*
X606901Y1081141D01*
X469381Y1218661D01*
X468459Y1219278D01*
X467370Y1219495D01*
X446344D01*
X445742Y1220947D01*
X444376Y1222727D01*
X442597Y1224092D01*
X440524Y1224951D01*
X438300Y1225243D01*
D02*
G37*
G36*
X682890Y809806D02*
X680601Y809504D01*
X678467Y808621D01*
X676635Y807215D01*
X675229Y805383D01*
X674346Y803249D01*
X674044Y800960D01*
X674346Y798671D01*
X675229Y796537D01*
X676635Y794705D01*
X678467Y793299D01*
X680601Y792416D01*
X682890Y792114D01*
X685179Y792416D01*
X687313Y793299D01*
X689145Y794705D01*
X690551Y796537D01*
X691434Y798671D01*
X691736Y800960D01*
X691434Y803249D01*
X690551Y805383D01*
X689145Y807215D01*
X687313Y808621D01*
X685179Y809504D01*
X682890Y809806D01*
D02*
G37*
G36*
X444630Y783720D02*
X426590D01*
Y765680D01*
X444630D01*
Y783720D01*
D02*
G37*
G36*
X377320D02*
X359280D01*
Y765680D01*
X377320D01*
Y783720D01*
D02*
G37*
G36*
X461010Y783798D02*
X458655Y783488D01*
X456461Y782579D01*
X454577Y781133D01*
X453131Y779249D01*
X452222Y777055D01*
X451912Y774700D01*
X452222Y772345D01*
X453131Y770151D01*
X454577Y768267D01*
X456461Y766821D01*
X458655Y765912D01*
X461010Y765602D01*
X463365Y765912D01*
X465559Y766821D01*
X467443Y768267D01*
X468889Y770151D01*
X469798Y772345D01*
X470108Y774700D01*
X469798Y777055D01*
X468889Y779249D01*
X467443Y781133D01*
X465559Y782579D01*
X463365Y783488D01*
X461010Y783798D01*
D02*
G37*
G36*
X393700D02*
X391345Y783488D01*
X389151Y782579D01*
X387267Y781133D01*
X385821Y779249D01*
X384912Y777055D01*
X384602Y774700D01*
X384912Y772345D01*
X385821Y770151D01*
X387267Y768267D01*
X389151Y766821D01*
X391345Y765912D01*
X393700Y765602D01*
X396055Y765912D01*
X398249Y766821D01*
X400133Y768267D01*
X401579Y770151D01*
X402488Y772345D01*
X402798Y774700D01*
X402488Y777055D01*
X401579Y779249D01*
X400133Y781133D01*
X398249Y782579D01*
X396055Y783488D01*
X393700Y783798D01*
D02*
G37*
G36*
X820370Y793570D02*
X817132Y793251D01*
X814017Y792306D01*
X811148Y790772D01*
X808632Y788708D01*
X806568Y786192D01*
X805034Y783323D01*
X804089Y780209D01*
X803770Y776970D01*
X804089Y773732D01*
X805034Y770618D01*
X806568Y767748D01*
X808632Y765232D01*
X811148Y763168D01*
X814017Y761634D01*
X817132Y760689D01*
X820370Y760370D01*
X823608Y760689D01*
X826722Y761634D01*
X829592Y763168D01*
X832108Y765232D01*
X834172Y767748D01*
X835706Y770618D01*
X836651Y773732D01*
X836970Y776970D01*
X836651Y780209D01*
X835706Y783323D01*
X834172Y786192D01*
X832108Y788708D01*
X829592Y790772D01*
X826722Y792306D01*
X823608Y793251D01*
X820370Y793570D01*
D02*
G37*
%LPD*%
G36*
X1082569Y1044469D02*
X1083491Y1043852D01*
X1084580Y1043635D01*
X1135472D01*
X1144889Y1034219D01*
X1144169Y1033142D01*
X1142514Y1033827D01*
X1140460Y1034098D01*
X1138406Y1033827D01*
X1136491Y1033034D01*
X1134847Y1031773D01*
X1133586Y1030129D01*
X1133120Y1029005D01*
X1084558D01*
X1079633Y1033930D01*
X1079733Y1034060D01*
X1080893Y1036863D01*
X1081289Y1039870D01*
X1080893Y1042877D01*
X1079854Y1045387D01*
X1080930Y1046107D01*
X1082569Y1044469D01*
D02*
G37*
D14*
X1026160Y839470D02*
X1037590Y828040D01*
Y767080D02*
Y828040D01*
Y767080D02*
X1045490Y759180D01*
X1095730D02*
X1123950Y787400D01*
X1045490Y759180D02*
X1095730D01*
X1047750Y1096010D02*
Y1168896D01*
X1061224Y1182370D01*
X990600Y1226820D02*
X1216660D01*
X916940Y1212850D02*
X1066800D01*
X881380Y1248410D02*
X916940Y1212850D01*
X1216660Y1226820D02*
X1218385Y1225095D01*
X1231900Y1211580D01*
X1268730Y867410D02*
Y896620D01*
X1282700Y910590D02*
Y1187450D01*
X1268730Y896620D02*
X1282700Y910590D01*
X1268730Y1201420D02*
X1282700Y1187450D01*
X1104900Y1211580D02*
X1116690Y1199790D01*
X1267100D01*
X1268730Y1201420D01*
X1168400Y1112520D02*
X1192530Y1136650D01*
X1168400Y1051560D02*
Y1112520D01*
X1192530Y1136650D02*
X1206500D01*
X1083380Y1026160D02*
X1140460D01*
X1069670Y1039870D02*
X1083380Y1026160D01*
X1078300Y1005840D02*
X1141730D01*
X1069670Y1014470D02*
X1078300Y1005840D01*
X1130300Y932180D02*
Y952500D01*
X1107440Y909320D02*
X1130300Y932180D01*
X1075010Y1056050D02*
Y1065530D01*
X1068400Y1058920D02*
X1075010Y1065530D01*
X1084580Y1046480D02*
X1136650D01*
X1075010Y1056050D02*
X1084580Y1046480D01*
X1136650D02*
X1176020Y1007110D01*
X901450Y1202940D02*
X1051310D01*
X1051560Y1202690D01*
X855980Y1248410D02*
X901450Y1202940D01*
X1086870Y1193550D02*
X1104900Y1211580D01*
X1028450Y1193550D02*
X1086870D01*
X1021080Y1186180D02*
X1028450Y1193550D01*
X1021080Y1126787D02*
Y1186180D01*
X1018243Y1123950D02*
X1021080Y1126787D01*
X975360Y1165860D02*
X985520Y1176020D01*
X975360Y1140564D02*
Y1165860D01*
X858546Y1023750D02*
X975360Y1140564D01*
X1117600Y1084580D02*
X1130003D01*
X1136650Y1091227D01*
Y1165860D01*
X965200Y1168296D02*
Y1191260D01*
X882650Y1193800D02*
X904240D01*
X864870Y1176020D02*
X882650Y1193800D01*
X1211580Y1182370D02*
X1268730Y1125220D01*
X1061224Y1182370D02*
X1211580D01*
X1005840Y1123950D02*
X1018243D01*
X881380Y934720D02*
X933450D01*
X1027430Y1028700D01*
X1104068Y909320D02*
X1107440D01*
X1242060Y840740D02*
X1268730Y867410D01*
X1210310Y839470D02*
X1211580Y840740D01*
X1242060D01*
X1062070Y798480D02*
X1094999D01*
X1046480Y814070D02*
X1062070Y798480D01*
X1046480Y814070D02*
Y854710D01*
X1036320Y864870D02*
X1046480Y854710D01*
X1026160Y864870D02*
X1036320D01*
X1123950Y827431D02*
Y838200D01*
X1094999Y798480D02*
X1123950Y827431D01*
X1023776Y841854D02*
X1026160Y839470D01*
X1021236Y841854D02*
X1023776D01*
X979170Y883920D02*
X1021236Y841854D01*
X979170Y883920D02*
Y894680D01*
X1121410Y787400D02*
X1123950D01*
X1042670Y889070D02*
Y1056640D01*
X1026160Y1073150D02*
X1042670Y1056640D01*
X1005840Y1073150D02*
X1026160D01*
X1042670Y889070D02*
X1069670Y862070D01*
X1050290Y906850D02*
Y1073150D01*
X1024890Y1098550D02*
X1050290Y1073150D01*
X1005840Y1098550D02*
X1024890D01*
X1050290Y906850D02*
X1069670Y887470D01*
X853440Y905510D02*
Y932180D01*
X899160Y977900D01*
X847090Y1176020D02*
X864870D01*
X815670Y1018766D02*
X965200Y1168296D01*
X815670Y989070D02*
X850350Y1023750D01*
X858546D01*
X815670Y1014470D02*
Y1018766D01*
X604890Y800960D02*
Y1079130D01*
X467370Y1216650D02*
X604890Y1079130D01*
X438300Y1216650D02*
X467370D01*
D39*
X1217930Y877570D02*
D03*
X925830Y904240D02*
D03*
X1225550Y1000760D02*
D03*
X853440Y905510D02*
D03*
X889000Y904240D02*
D03*
D47*
X757890Y1225960D02*
D03*
X529890D02*
D03*
X682890Y800960D02*
D03*
D48*
X604890D02*
D03*
D51*
X979170Y894680D02*
D03*
Y868680D02*
D03*
D52*
Y842680D02*
D03*
D53*
X1026160Y839470D02*
D03*
X1005840Y1073150D02*
D03*
Y1098550D02*
D03*
Y1123950D02*
D03*
X855980Y1248410D02*
D03*
X881380D02*
D03*
X906780D02*
D03*
X854710Y1013460D02*
D03*
Y988060D02*
D03*
X1268730Y1125220D02*
D03*
Y1150620D02*
D03*
Y1176020D02*
D03*
X1107440Y909320D02*
D03*
Y934720D02*
D03*
Y960120D02*
D03*
X1117600Y1059180D02*
D03*
Y1084580D02*
D03*
Y1109980D02*
D03*
X461010Y774700D02*
D03*
X393700D02*
D03*
X364490Y1005910D02*
D03*
X1268730Y972820D02*
D03*
Y947420D02*
D03*
Y922020D02*
D03*
D54*
X1026160Y864870D02*
D03*
X1005840Y1149350D02*
D03*
X854710Y1038860D02*
D03*
X1268730Y1201420D02*
D03*
X1107440Y985520D02*
D03*
X1117600Y1135380D02*
D03*
X364490Y930910D02*
D03*
X1268730Y896620D02*
D03*
D55*
X1123950Y838200D02*
D03*
Y812800D02*
D03*
Y787400D02*
D03*
D56*
X932180Y1248410D02*
D03*
X435610Y774700D02*
D03*
X368300D02*
D03*
D57*
X1069670Y1166870D02*
D03*
D58*
Y1141470D02*
D03*
Y1116070D02*
D03*
Y1090670D02*
D03*
Y1065270D02*
D03*
Y1039870D02*
D03*
Y1014470D02*
D03*
Y989070D02*
D03*
Y963670D02*
D03*
Y938270D02*
D03*
Y912870D02*
D03*
Y887470D02*
D03*
Y862070D02*
D03*
Y836670D02*
D03*
Y811270D02*
D03*
X815670Y1166870D02*
D03*
Y1141470D02*
D03*
Y1116070D02*
D03*
Y1090670D02*
D03*
Y1065270D02*
D03*
Y1039870D02*
D03*
Y1014470D02*
D03*
Y989070D02*
D03*
Y963670D02*
D03*
Y938270D02*
D03*
Y912870D02*
D03*
Y887470D02*
D03*
Y862070D02*
D03*
Y836670D02*
D03*
Y811270D02*
D03*
D59*
X1065470Y776970D02*
D03*
X820370D02*
D03*
Y1246470D02*
D03*
X1065470D02*
D03*
D60*
X1104900Y1211580D02*
D03*
X1130300D02*
D03*
X1155700D02*
D03*
X1181100D02*
D03*
X1206500D02*
D03*
X1231900D02*
D03*
D61*
X368300Y1216650D02*
D03*
X438300D02*
D03*
Y1136650D02*
D03*
X368300D02*
D03*
D62*
X453390Y1046550D02*
D03*
Y896550D02*
D03*
D63*
X1047750Y1096010D02*
D03*
X990600Y1226820D02*
D03*
X1066800Y1212850D02*
D03*
X1168400Y1051560D02*
D03*
X1206500Y1136650D02*
D03*
X1130300Y952500D02*
D03*
X1176020Y1007110D02*
D03*
X1141730Y1005840D02*
D03*
X1140460Y1026160D02*
D03*
X1051560Y1202690D02*
D03*
X985520Y1176020D02*
D03*
X1136650Y1165860D02*
D03*
X965200Y1191260D02*
D03*
X904240Y1193800D02*
D03*
X1027430Y1028700D02*
D03*
X1210310Y839470D02*
D03*
X881380Y934720D02*
D03*
X899160Y977900D02*
D03*
X847090Y1176020D02*
D03*
M02*
